<svg width="1321" height="480" viewBox="0 0 1321 480" fill="none" xmlns="http://www.w3.org/2000/svg">
<path d="M904.957 144.103C903.481 143.021 902.989 138 902.989 138C902.989 138 902.496 143.021 901.02 144.103C898.382 146.04 896 146.073 896 146.073C896 146.073 900.09 146.704 901.119 147.549C901.909 148.201 902.989 153.456 902.989 153.456C902.989 153.456 904.069 148.201 904.86 147.549C905.887 146.704 909.978 146.073 909.978 146.073C909.978 146.073 907.596 146.04 904.957 144.103Z" fill="white" fill-opacity="0.5"/>
<path d="M924.957 6.10266C923.481 5.02132 922.989 2.86102e-06 922.989 2.86102e-06C922.989 2.86102e-06 922.496 5.02132 921.02 6.10266C918.382 8.03999 916 8.07333 916 8.07333C916 8.07333 920.09 8.704 921.119 9.54934C921.909 10.2013 922.989 15.456 922.989 15.456C922.989 15.456 924.069 10.2013 924.86 9.54934C925.887 8.704 929.978 8.07333 929.978 8.07333C929.978 8.07333 927.596 8.03999 924.957 6.10266Z" fill="white" fill-opacity="0.5"/>
<path d="M1066.96 34.1027C1065.48 33.0213 1064.99 28 1064.99 28C1064.99 28 1064.5 33.0213 1063.02 34.1027C1060.38 36.04 1058 36.0733 1058 36.0733C1058 36.0733 1062.09 36.704 1063.12 37.5493C1063.91 38.2013 1064.99 43.456 1064.99 43.456C1064.99 43.456 1066.07 38.2013 1066.86 37.5493C1067.89 36.704 1071.98 36.0733 1071.98 36.0733C1071.98 36.0733 1069.6 36.04 1066.96 34.1027Z" fill="white" fill-opacity="0.5"/>
<path d="M1041.96 208.103C1040.48 207.021 1039.99 202 1039.99 202C1039.99 202 1039.5 207.021 1038.02 208.103C1035.38 210.04 1033 210.073 1033 210.073C1033 210.073 1037.09 210.704 1038.12 211.549C1038.91 212.201 1039.99 217.456 1039.99 217.456C1039.99 217.456 1041.07 212.201 1041.86 211.549C1042.89 210.704 1046.98 210.073 1046.98 210.073C1046.98 210.073 1044.6 210.04 1041.96 208.103Z" fill="white" fill-opacity="0.5"/>
<path d="M917.957 364.103C916.481 363.021 915.989 358 915.989 358C915.989 358 915.496 363.021 914.02 364.103C911.382 366.04 909 366.073 909 366.073C909 366.073 913.09 366.704 914.119 367.549C914.909 368.201 915.989 373.456 915.989 373.456C915.989 373.456 917.069 368.201 917.86 367.549C918.887 366.704 922.978 366.073 922.978 366.073C922.978 366.073 920.596 366.04 917.957 364.103Z" fill="white" fill-opacity="0.5"/>
<path d="M1178.96 272.103C1177.48 271.021 1176.99 266 1176.99 266C1176.99 266 1176.5 271.021 1175.02 272.103C1172.38 274.04 1170 274.073 1170 274.073C1170 274.073 1174.09 274.704 1175.12 275.549C1175.91 276.201 1176.99 281.456 1176.99 281.456C1176.99 281.456 1178.07 276.201 1178.86 275.549C1179.89 274.704 1183.98 274.073 1183.98 274.073C1183.98 274.073 1181.6 274.04 1178.96 272.103Z" fill="white" fill-opacity="0.5"/>
<path d="M696.957 405.103C695.481 404.021 694.989 399 694.989 399C694.989 399 694.496 404.021 693.02 405.103C690.382 407.04 688 407.073 688 407.073C688 407.073 692.09 407.704 693.119 408.549C693.909 409.201 694.989 414.456 694.989 414.456C694.989 414.456 696.069 409.201 696.86 408.549C697.887 407.704 701.978 407.073 701.978 407.073C701.978 407.073 699.596 407.04 696.957 405.103Z" fill="white" fill-opacity="0.5"/>
<path d="M514.957 466.103C513.481 465.021 512.989 460 512.989 460C512.989 460 512.496 465.021 511.02 466.103C508.382 468.04 506 468.073 506 468.073C506 468.073 510.09 468.704 511.119 469.549C511.909 470.201 512.989 475.456 512.989 475.456C512.989 475.456 514.069 470.201 514.86 469.549C515.887 468.704 519.978 468.073 519.978 468.073C519.978 468.073 517.596 468.04 514.957 466.103Z" fill="white" fill-opacity="0.5"/>
<path d="M475.957 349.103C474.481 348.021 473.989 343 473.989 343C473.989 343 473.496 348.021 472.02 349.103C469.382 351.04 467 351.073 467 351.073C467 351.073 471.09 351.704 472.119 352.549C472.909 353.201 473.989 358.456 473.989 358.456C473.989 358.456 475.069 353.201 475.86 352.549C476.887 351.704 480.978 351.073 480.978 351.073C480.978 351.073 478.596 351.04 475.957 349.103Z" fill="white" fill-opacity="0.5"/>
<path d="M328.957 195.103C327.481 194.021 326.989 189 326.989 189C326.989 189 326.496 194.021 325.02 195.103C322.382 197.04 320 197.073 320 197.073C320 197.073 324.09 197.704 325.119 198.549C325.909 199.201 326.989 204.456 326.989 204.456C326.989 204.456 328.069 199.201 328.86 198.549C329.887 197.704 333.978 197.073 333.978 197.073C333.978 197.073 331.596 197.04 328.957 195.103Z" fill="white" fill-opacity="0.5"/>
<path d="M489.957 107.103C488.481 106.021 487.989 101 487.989 101C487.989 101 487.496 106.021 486.02 107.103C483.382 109.04 481 109.073 481 109.073C481 109.073 485.09 109.704 486.119 110.549C486.909 111.201 487.989 116.456 487.989 116.456C487.989 116.456 489.069 111.201 489.86 110.549C490.887 109.704 494.978 109.073 494.978 109.073C494.978 109.073 492.596 109.04 489.957 107.103Z" fill="white" fill-opacity="0.5"/>
<path d="M641.957 58.1027C640.481 57.0213 639.989 52 639.989 52C639.989 52 639.496 57.0213 638.02 58.1027C635.382 60.04 633 60.0733 633 60.0733C633 60.0733 637.09 60.704 638.119 61.5493C638.909 62.2013 639.989 67.456 639.989 67.456C639.989 67.456 641.069 62.2013 641.86 61.5493C642.887 60.704 646.978 60.0733 646.978 60.0733C646.978 60.0733 644.596 60.04 641.957 58.1027Z" fill="white" fill-opacity="0.5"/>
<path d="M283.957 41.1027C282.481 40.0213 281.989 35 281.989 35C281.989 35 281.496 40.0213 280.02 41.1027C277.382 43.04 275 43.0733 275 43.0733C275 43.0733 279.09 43.704 280.119 44.5493C280.909 45.2013 281.989 50.456 281.989 50.456C281.989 50.456 283.069 45.2013 283.86 44.5493C284.887 43.704 288.978 43.0733 288.978 43.0733C288.978 43.0733 286.596 43.04 283.957 41.1027Z" fill="white" fill-opacity="0.5"/>
<path d="M155.957 213.103C154.481 212.021 153.989 207 153.989 207C153.989 207 153.496 212.021 152.02 213.103C149.382 215.04 147 215.073 147 215.073C147 215.073 151.09 215.704 152.119 216.549C152.909 217.201 153.989 222.456 153.989 222.456C153.989 222.456 155.069 217.201 155.86 216.549C156.887 215.704 160.978 215.073 160.978 215.073C160.978 215.073 158.596 215.04 155.957 213.103Z" fill="white" fill-opacity="0.5"/>
<path d="M251.957 381.103C250.481 380.021 249.989 375 249.989 375C249.989 375 249.496 380.021 248.02 381.103C245.382 383.04 243 383.073 243 383.073C243 383.073 247.09 383.704 248.119 384.549C248.909 385.201 249.989 390.456 249.989 390.456C249.989 390.456 251.069 385.201 251.86 384.549C252.887 383.704 256.978 383.073 256.978 383.073C256.978 383.073 254.596 383.04 251.957 381.103Z" fill="white" fill-opacity="0.5"/>
<path d="M341.223 310.112C341.223 311.277 340.277 312.223 339.111 312.223C337.945 312.223 337 311.277 337 310.112C337 308.945 337.945 308 339.111 308C340.277 308 341.223 308.945 341.223 310.112Z" fill="white" fill-opacity="0.5"/>
<path d="M425.223 416.112C425.223 417.277 424.277 418.223 423.111 418.223C421.945 418.223 421 417.277 421 416.112C421 414.945 421.945 414 423.111 414C424.277 414 425.223 414.945 425.223 416.112Z" fill="white" fill-opacity="0.5"/>
<path d="M427.223 194.112C427.223 195.277 426.277 196.223 425.111 196.223C423.945 196.223 423 195.277 423 194.112C423 192.945 423.945 192 425.111 192C426.277 192 427.223 192.945 427.223 194.112Z" fill="white" fill-opacity="0.5"/>
<path d="M427.223 75.112C427.223 76.2773 426.277 77.2227 425.111 77.2227C423.945 77.2227 423 76.2773 423 75.112C423 73.9453 423.945 73 425.111 73C426.277 73 427.223 73.9453 427.223 75.112Z" fill="white" fill-opacity="0.5"/>
<path d="M233.223 136.112C233.223 137.277 232.277 138.223 231.111 138.223C229.945 138.223 229 137.277 229 136.112C229 134.945 229.945 134 231.111 134C232.277 134 233.223 134.945 233.223 136.112Z" fill="white" fill-opacity="0.5"/>
<path d="M151.223 356.112C151.223 357.277 150.277 358.223 149.111 358.223C147.945 358.223 147 357.277 147 356.112C147 354.945 147.945 354 149.111 354C150.277 354 151.223 354.945 151.223 356.112Z" fill="white" fill-opacity="0.5"/>
<path d="M566.223 82.112C566.223 83.2773 565.277 84.2227 564.111 84.2227C562.945 84.2227 562 83.2773 562 82.112C562 80.9453 562.945 80 564.111 80C565.277 80 566.223 80.9453 566.223 82.112Z" fill="white" fill-opacity="0.5"/>
<path d="M748.223 22.112C748.223 23.2773 747.277 24.2227 746.111 24.2227C744.945 24.2227 744 23.2773 744 22.112C744 20.9453 744.945 20 746.111 20C747.277 20 748.223 20.9453 748.223 22.112Z" fill="white" fill-opacity="0.5"/>
<path d="M528.223 2.11201C528.223 3.27735 527.277 4.22266 526.111 4.22266C524.945 4.22266 524 3.27735 524 2.11201C524 0.945345 524.945 0 526.111 0C527.277 0 528.223 0.945345 528.223 2.11201Z" fill="white" fill-opacity="0.5"/>
<path d="M820.223 148.112C820.223 149.277 819.277 150.223 818.111 150.223C816.945 150.223 816 149.277 816 148.112C816 146.945 816.945 146 818.111 146C819.277 146 820.223 146.945 820.223 148.112Z" fill="white" fill-opacity="0.5"/>
<path d="M990.223 103.112C990.223 104.277 989.277 105.223 988.111 105.223C986.945 105.223 986 104.277 986 103.112C986 101.945 986.945 101 988.111 101C989.277 101 990.223 101.945 990.223 103.112Z" fill="white" fill-opacity="0.5"/>
<path d="M1133.22 82.112C1133.22 83.2773 1132.28 84.2227 1131.11 84.2227C1129.95 84.2227 1129 83.2773 1129 82.112C1129 80.9453 1129.95 80 1131.11 80C1132.28 80 1133.22 80.9453 1133.22 82.112Z" fill="white" fill-opacity="0.5"/>
<path d="M914.223 263.112C914.223 264.277 913.277 265.223 912.111 265.223C910.945 265.223 910 264.277 910 263.112C910 261.945 910.945 261 912.111 261C913.277 261 914.223 261.945 914.223 263.112Z" fill="white" fill-opacity="0.5"/>
<path d="M1087.22 368.112C1087.22 369.277 1086.28 370.223 1085.11 370.223C1083.95 370.223 1083 369.277 1083 368.112C1083 366.945 1083.95 366 1085.11 366C1086.28 366 1087.22 366.945 1087.22 368.112Z" fill="white" fill-opacity="0.5"/>
<path d="M994.223 458.112C994.223 459.277 993.277 460.223 992.111 460.223C990.945 460.223 990 459.277 990 458.112C990 456.945 990.945 456 992.111 456C993.277 456 994.223 456.945 994.223 458.112Z" fill="white" fill-opacity="0.5"/>
<path d="M1262.22 178.112C1262.22 179.277 1261.28 180.223 1260.11 180.223C1258.95 180.223 1258 179.277 1258 178.112C1258 176.945 1258.95 176 1260.11 176C1261.28 176 1262.22 176.945 1262.22 178.112Z" fill="white" fill-opacity="0.5"/>
<path d="M1280.22 41.112C1280.22 42.2773 1279.28 43.2227 1278.11 43.2227C1276.95 43.2227 1276 42.2773 1276 41.112C1276 39.9453 1276.95 39 1278.11 39C1279.28 39 1280.22 39.9453 1280.22 41.112Z" fill="white" fill-opacity="0.5"/>
<path d="M1284.22 368.112C1284.22 369.277 1283.28 370.223 1282.11 370.223C1280.95 370.223 1280 369.277 1280 368.112C1280 366.945 1280.95 366 1282.11 366C1283.28 366 1284.22 366.945 1284.22 368.112Z" fill="white" fill-opacity="0.5"/>
<path d="M1320.22 436.112C1320.22 437.277 1319.28 438.223 1318.11 438.223C1316.95 438.223 1316 437.277 1316 436.112C1316 434.945 1316.95 434 1318.11 434C1319.28 434 1320.22 434.945 1320.22 436.112Z" fill="white" fill-opacity="0.5"/>
<path d="M124.223 71.112C124.223 72.2773 123.277 73.2227 122.111 73.2227C120.945 73.2227 120 72.2773 120 71.112C120 69.9453 120.945 69 122.111 69C123.277 69 124.223 69.9453 124.223 71.112Z" fill="white" fill-opacity="0.5"/>
<path d="M4.22266 215.112C4.22266 216.277 3.27728 217.223 2.11061 217.223C0.945279 217.223 0 216.277 0 215.112C0 213.945 0.945279 213 2.11061 213C3.27728 213 4.22266 213.945 4.22266 215.112Z" fill="white" fill-opacity="0.5"/>
<path d="M34.2227 351.112C34.2227 352.277 33.2773 353.223 32.1106 353.223C30.9453 353.223 30 352.277 30 351.112C30 349.945 30.9453 349 32.1106 349C33.2773 349 34.2227 349.945 34.2227 351.112Z" fill="white" fill-opacity="0.5"/>
<path d="M815.223 418.112C815.223 419.277 814.277 420.223 813.111 420.223C811.945 420.223 811 419.277 811 418.112C811 416.945 811.945 416 813.111 416C814.277 416 815.223 416.945 815.223 418.112Z" fill="white" fill-opacity="0.5"/>
<path d="M1142.22 477.112C1142.22 478.277 1141.28 479.223 1140.11 479.223C1138.95 479.223 1138 478.277 1138 477.112C1138 475.945 1138.95 475 1140.11 475C1141.28 475 1142.22 475.945 1142.22 477.112Z" fill="white" fill-opacity="0.5"/>
</svg>
