<svg width="337" height="160" viewBox="0 0 337 160" fill="none" xmlns="http://www.w3.org/2000/svg">
<path d="M303.88 93.88H315.72V81.88H328.92V93.88H336.52V104.68H328.92V117H315.72V104.68H289.16V95.16L306.84 61H320.52L303.88 93.88Z" fill="url(#paint0_linear)"/>
<path d="M16.88 93.88H28.72V81.88H41.92V93.88H49.52V104.68H41.92V117H28.72V104.68H2.16V95.16L19.84 61H33.52L16.88 93.88Z" fill="url(#paint1_linear)"/>
<path d="M116.141 46.224C124.816 46.224 131.848 39.1916 131.848 30.5167C131.848 21.8418 124.816 14.8094 116.141 14.8094C107.466 14.8094 100.434 21.8418 100.434 30.5167C100.434 39.1916 107.466 46.224 116.141 46.224Z" fill="url(#paint2_linear)"/>
<path d="M102.676 38.6068C108.54 30.2259 115.827 22.9161 124.19 17.0284C128.776 19.7713 131.848 24.7843 131.848 30.5167C131.848 39.1915 124.816 46.224 116.141 46.224C110.425 46.224 105.424 43.1705 102.676 38.6068Z" fill="url(#paint3_linear)"/>
<path d="M166.999 148.676C204.928 148.676 235.675 117.929 235.675 80.0001C235.675 42.0716 204.928 11.3245 166.999 11.3245C129.071 11.3245 98.3242 42.0716 98.3242 80.0001C98.3242 117.929 129.071 148.676 166.999 148.676Z" fill="url(#paint4_linear)"/>
<path d="M118.373 66.7649C120.648 66.097 122.935 65.3773 125.23 64.6068C128.953 63.3569 130.931 59.2948 129.631 55.5881L129.63 55.5856C128.356 51.9495 124.395 50.0013 120.743 51.2295C118.622 51.9429 116.51 52.6087 114.412 53.2254C111.194 54.172 109.082 57.2449 109.365 60.588C109.741 65.0306 114.095 68.0211 118.373 66.7649Z" fill="#00B4FF"/>
<path d="M139.75 95.2064C139.75 92.8465 139.213 90.6125 138.254 88.6197C142.745 88.5927 146.377 84.9447 146.377 80.4475C146.377 75.9333 142.718 72.2736 138.204 72.2736C133.69 72.2736 130.031 75.9333 130.031 80.4475C130.031 80.6448 130.04 80.8402 130.054 81.0341C128.345 80.3696 126.489 80.001 124.545 80.001C116.148 80.001 109.34 86.8089 109.34 95.2067C109.34 103.605 116.148 110.412 124.545 110.412C132.943 110.412 139.75 103.604 139.75 95.2064Z" fill="#00B4FF"/>
<path d="M148.871 35.0205C153.385 35.0205 157.044 31.3611 157.044 26.847C157.044 22.3329 153.385 18.6735 148.871 18.6735C144.357 18.6735 140.697 22.3329 140.697 26.847C140.697 31.3611 144.357 35.0205 148.871 35.0205Z" fill="#00B4FF"/>
<path d="M166.998 11.3255C164.881 11.3255 162.788 11.4259 160.721 11.6141C169.96 12.2949 172.981 24.2322 165.367 29.3616C160.589 32.5773 155.466 35.6518 150.07 38.535C146.572 40.4048 145.148 44.8095 146.92 48.3546C148.109 50.7326 150.484 52.0942 152.956 52.0942C154.026 52.0942 155.118 51.837 156.134 51.2974C162.813 47.7523 169.129 43.9185 174.97 39.8809C178.355 37.5373 182.973 38.1773 185.624 41.324C186.898 42.833 187.513 44.6652 187.513 46.4817C187.513 48.9695 186.361 51.4323 184.165 53.0072C181.248 55.0966 178.186 57.1358 174.995 59.1091C172.162 60.8597 170.813 64.3295 171.914 67.4699C173.452 71.8496 178.534 73.5092 182.327 71.1656C191.968 65.2048 200.589 58.6668 207.764 51.8464C211.017 48.753 216.357 49.9201 218.054 54.077C218.07 54.1178 218.088 54.1617 218.104 54.2025C219.03 56.4832 218.556 59.0966 216.89 60.9068C214.948 63.0182 212.46 65.6566 211.174 66.8644C204.19 73.4339 195.663 79.7366 186.054 85.4496C184.592 80.0221 179.469 76.0943 173.496 76.4801C167.309 76.8849 162.365 81.9923 162.148 88.1884C162.042 91.2629 163.08 94.0959 164.865 96.2919C162.587 97.2865 160.307 98.2339 158.029 99.128C154.478 100.521 152.514 104.439 153.747 108.047C155.052 111.859 159.262 113.801 162.992 112.342C166.537 110.959 170.082 109.459 173.618 107.85C193.194 98.921 210.446 87.4417 222.945 75.1154C223.061 76.728 223.117 78.3594 223.117 80.0002C223.117 81.6158 223.061 83.2158 222.951 84.8002C213.226 94.7327 199.864 104.198 184.561 111.919C166.691 120.932 148.479 126.413 133.173 127.385C132.925 127.401 132.677 127.417 132.429 127.429C125.907 127.787 120.285 127.25 115.949 125.933C121.637 132.251 128.479 137.506 136.147 141.368C140.969 140.957 146.001 140.176 151.177 139.04C163.958 136.239 177.596 131.304 190.945 124.568C191.039 124.521 191.133 124.474 191.227 124.427C197.219 121.39 202.452 129.553 197.198 133.741C187.001 141.861 174.446 147.144 160.721 148.386C162.788 148.574 164.881 148.675 166.998 148.675C204.928 148.675 235.673 117.93 235.673 80.0002C235.673 42.0707 204.928 11.3255 166.998 11.3255ZM194.882 41.7005C190.368 41.7005 186.71 38.0424 186.71 33.5279C186.71 29.0134 190.368 25.3553 194.882 25.3553C199.397 25.3553 203.058 29.0134 203.058 33.5279C203.058 38.0424 199.397 41.7005 194.882 41.7005ZM211.425 124.279C206.91 124.279 203.249 120.621 203.249 116.107C203.249 111.592 206.91 107.931 211.425 107.931C215.939 107.931 219.597 111.592 219.597 116.107C219.597 120.621 215.939 124.279 211.425 124.279Z" fill="#018FCB"/>
<path d="M244.499 40.8941C239.226 30.4376 226.542 24.9757 208.628 25.3741C214.489 29.8478 219.609 35.2439 223.772 41.3459C227.737 42.6667 230.539 44.6777 231.85 47.2753C233.161 49.8698 233.114 53.3114 231.828 57.28C230.385 61.7224 227.389 66.8236 222.994 72.1412C222.837 72.3295 222.68 72.5177 222.52 72.7059C212.644 84.4456 197.416 95.8401 179.543 104.86C161.673 113.873 143.461 119.354 128.155 120.326C127.907 120.342 127.659 120.358 127.411 120.37C120.531 120.747 114.652 120.129 110.229 118.651C106.263 117.33 103.462 115.319 102.15 112.722C100.839 110.127 100.886 106.689 102.172 102.72C99.7879 95.9123 98.4451 88.615 98.3353 81.0197C87.3644 95.1938 84.2209 108.646 89.5008 119.106C94.5957 129.208 106.605 134.648 123.562 134.648C124.158 134.648 124.76 134.642 125.372 134.626C126.294 134.607 127.232 134.57 128.183 134.519C133.883 134.209 139.919 133.349 146.159 131.981C158.941 129.18 172.578 124.245 185.927 117.509C199.273 110.773 211.345 102.736 221.193 94.1209C226.002 89.9138 230.281 85.5687 233.917 81.1671C234.523 80.4362 235.107 79.7083 235.665 78.9805C243.16 69.2989 247 59.9561 247 51.6706C247 47.8243 246.172 44.2102 244.499 40.8941Z" fill="url(#paint5_linear)"/>
<path d="M247.001 51.6706C247.001 59.9561 243.161 69.2989 235.666 78.9805C235.107 79.7083 234.524 80.4362 233.918 81.1671C230.282 85.5687 226.003 89.9138 221.194 94.1209C211.346 102.736 199.274 110.773 185.928 117.509C172.579 124.245 158.941 129.18 146.16 131.981C139.92 133.349 133.884 134.209 128.184 134.519C127.233 134.57 126.295 134.607 125.373 134.626C124.761 134.642 124.159 134.648 123.563 134.648C121.458 134.648 119.428 134.563 117.477 134.397C119.66 134.234 121.891 133.995 124.162 133.679C127.243 133.252 130.399 132.684 133.605 131.981C146.386 129.18 160.024 124.245 173.373 117.509C186.719 110.773 198.791 102.736 208.639 94.1209C213.448 89.9138 217.727 85.5687 221.363 81.1671C227.139 74.1773 231.035 67.335 232.987 60.9067C233.956 57.7161 234.446 54.6259 234.446 51.6706C234.446 47.8243 233.617 44.2102 231.945 40.8941C228.165 33.3992 220.573 28.4706 209.975 26.4282C209.533 26.0706 209.084 25.7192 208.629 25.3741C226.543 24.9757 239.227 30.4376 244.5 40.8941C246.173 44.2102 247.001 47.8243 247.001 51.6706Z" fill="url(#paint6_linear)"/>
<path d="M110.227 118.651C106.261 117.33 103.46 115.319 102.152 112.722C100.84 110.127 100.887 106.689 102.174 102.72C101.048 99.5079 100.157 96.1909 99.5186 92.7813C98.8001 88.9626 98.3948 85.0332 98.3368 81.0197C95.5352 84.6392 93.2475 88.2112 91.4766 91.6986C91.7893 93.5214 92.1752 95.319 92.6301 97.0891C93.4775 100.387 93.6582 103.807 93.3875 107.201C93.2199 109.301 93.5164 111.164 94.3023 112.721C96.4607 116.994 102.641 119.674 111.403 120.323C113.985 120.518 116.787 120.533 119.777 120.361C119.777 120.358 119.777 120.358 119.777 120.358C116.128 120.126 112.909 119.545 110.227 118.651Z" fill="url(#paint7_linear)"/>
<path d="M225.126 160C237.206 160 247 150.207 247 138.126C247 126.045 237.206 116.252 225.126 116.252C213.045 116.252 203.252 126.045 203.252 138.126C203.252 150.207 213.045 160 225.126 160Z" fill="url(#paint8_linear)"/>
<path d="M225.125 116.252C223.785 116.252 222.475 116.379 221.201 116.61C231.409 118.459 239.152 127.385 239.152 138.126C239.152 141.624 238.326 144.927 236.866 147.858C236.126 144.526 233.059 142.07 229.457 142.288C225.957 142.499 223.076 145.311 222.788 148.806C222.637 150.642 223.181 152.348 224.186 153.688C225.781 155.816 224.662 158.887 222.066 159.467C221.78 159.531 221.492 159.59 221.201 159.642C222.475 159.873 223.785 160 225.125 160C237.205 160 246.999 150.207 246.999 138.126C246.999 126.045 237.205 116.252 225.125 116.252Z" fill="url(#paint9_linear)"/>
<path d="M214.065 142.275C216.621 142.275 218.692 140.203 218.692 137.647C218.692 135.092 216.621 133.02 214.065 133.02C211.509 133.02 209.438 135.092 209.438 137.647C209.438 140.203 211.509 142.275 214.065 142.275Z" fill="url(#paint10_linear)"/>
<path d="M228.159 133.02C230.714 133.02 232.786 130.948 232.786 128.392C232.786 125.837 230.714 123.765 228.159 123.765C225.603 123.765 223.531 125.837 223.531 128.392C223.531 130.948 225.603 133.02 228.159 133.02Z" fill="url(#paint11_linear)"/>
<path d="M218.556 16.347C223.07 16.347 226.73 12.6875 226.73 8.17345C226.73 3.65934 223.07 -6.10352e-05 218.556 -6.10352e-05C214.042 -6.10352e-05 210.383 3.65934 210.383 8.17345C210.383 12.6875 214.042 16.347 218.556 16.347Z" fill="url(#paint12_linear)"/>
<path d="M95.1735 160C99.6875 160 103.347 156.341 103.347 151.826C103.347 147.312 99.6875 143.653 95.1735 143.653C90.6594 143.653 87 147.312 87 151.826C87 156.341 90.6594 160 95.1735 160Z" fill="url(#paint13_linear)"/>
<defs>
<linearGradient id="paint0_linear" x1="310.5" y1="37" x2="310.5" y2="125" gradientUnits="userSpaceOnUse">
<stop stop-color="#B0FFC6"/>
<stop offset="1" stop-color="#00B4FF"/>
</linearGradient>
<linearGradient id="paint1_linear" x1="23.5" y1="37" x2="23.5" y2="125" gradientUnits="userSpaceOnUse">
<stop stop-color="#B0FFC6"/>
<stop offset="1" stop-color="#00B4FF"/>
</linearGradient>
<linearGradient id="paint2_linear" x1="96.9513" y1="30.5167" x2="131.084" y2="30.5167" gradientUnits="userSpaceOnUse">
<stop stop-color="#EAF6FF"/>
<stop offset="0.5213" stop-color="#D8ECFE"/>
<stop offset="1" stop-color="#B3DAFE"/>
</linearGradient>
<linearGradient id="paint3_linear" x1="90.0493" y1="31.626" x2="123.519" y2="31.626" gradientUnits="userSpaceOnUse">
<stop stop-color="#EAF6FF"/>
<stop offset="0.5213" stop-color="#D8ECFE"/>
<stop offset="1" stop-color="#B3DAFE"/>
</linearGradient>
<linearGradient id="paint4_linear" x1="166.999" y1="11.3245" x2="166.999" y2="148.676" gradientUnits="userSpaceOnUse">
<stop stop-color="#B0FFC6"/>
<stop offset="1" stop-color="#00B4FF"/>
</linearGradient>
<linearGradient id="paint5_linear" x1="82.6488" y1="80.0007" x2="273.353" y2="80.0007" gradientUnits="userSpaceOnUse">
<stop stop-color="#EAF6FF"/>
<stop offset="0.5213" stop-color="#D8ECFE"/>
<stop offset="1" stop-color="#B3DAFE"/>
</linearGradient>
<linearGradient id="paint6_linear" x1="86.3739" y1="80.0007" x2="207.504" y2="80.0007" gradientUnits="userSpaceOnUse">
<stop stop-color="#EAF6FF"/>
<stop offset="0.5213" stop-color="#D8ECFE"/>
<stop offset="1" stop-color="#B3DAFE"/>
</linearGradient>
<linearGradient id="paint7_linear" x1="45.9037" y1="100.75" x2="115.044" y2="100.75" gradientUnits="userSpaceOnUse">
<stop stop-color="#EAF6FF"/>
<stop offset="0.5213" stop-color="#D8ECFE"/>
<stop offset="1" stop-color="#B3DAFE"/>
</linearGradient>
<linearGradient id="paint8_linear" x1="203.252" y1="138.126" x2="247" y2="138.126" gradientUnits="userSpaceOnUse">
<stop stop-color="#EAF6FF"/>
<stop offset="0.5213" stop-color="#D8ECFE"/>
<stop offset="1" stop-color="#B3DAFE"/>
</linearGradient>
<linearGradient id="paint9_linear" x1="188.018" y1="138.126" x2="233.222" y2="138.126" gradientUnits="userSpaceOnUse">
<stop stop-color="#EAF6FF"/>
<stop offset="0.5213" stop-color="#D8ECFE"/>
<stop offset="1" stop-color="#B3DAFE"/>
</linearGradient>
<linearGradient id="paint10_linear" x1="188.019" y1="137.647" x2="233.223" y2="137.647" gradientUnits="userSpaceOnUse">
<stop stop-color="#EAF6FF"/>
<stop offset="0.5213" stop-color="#D8ECFE"/>
<stop offset="1" stop-color="#B3DAFE"/>
</linearGradient>
<linearGradient id="paint11_linear" x1="188.019" y1="128.392" x2="233.223" y2="128.392" gradientUnits="userSpaceOnUse">
<stop stop-color="#EAF6FF"/>
<stop offset="0.5213" stop-color="#D8ECFE"/>
<stop offset="1" stop-color="#B3DAFE"/>
</linearGradient>
<linearGradient id="paint12_linear" x1="206.567" y1="8.17344" x2="223.198" y2="8.17344" gradientUnits="userSpaceOnUse">
<stop stop-color="#EAF6FF"/>
<stop offset="0.5213" stop-color="#D8ECFE"/>
<stop offset="1" stop-color="#B3DAFE"/>
</linearGradient>
<linearGradient id="paint13_linear" x1="83.1845" y1="151.826" x2="99.815" y2="151.826" gradientUnits="userSpaceOnUse">
<stop stop-color="#EAF6FF"/>
<stop offset="0.5213" stop-color="#D8ECFE"/>
<stop offset="1" stop-color="#B3DAFE"/>
</linearGradient>
</defs>
</svg>
