<svg width="52" height="60" viewBox="0 0 52 60" fill="none" xmlns="http://www.w3.org/2000/svg">
<path d="M39.6832 22.5024H12.3148C11.5594 22.5024 10.9463 23.0624 10.9463 23.7524V43.751C10.9463 46.7708 13.3 49.2931 16.42 49.8756V56.2502C16.42 58.3176 18.2619 59.9999 20.5253 59.9999C22.7887 59.9999 24.6305 58.3176 24.6305 56.2502V50.0007H27.3673V56.2502C27.3673 58.3176 29.2092 59.9999 31.4726 59.9999C33.736 59.9999 35.5778 58.3176 35.5778 56.2502V49.8756C38.6978 49.2957 41.0516 46.7708 41.0516 43.751V23.7524C41.0516 23.06 40.4386 22.5024 39.6832 22.5024Z" fill="url(#paint0_linear)"/>
<path d="M33.1611 6.66112L35.4683 1.74393C35.7666 1.10893 35.4436 0.376561 34.7484 0.104003C34.0615 -0.171017 33.2486 0.12404 32.953 0.761495L30.6459 5.68115C29.1817 5.24618 27.6217 5.00373 26.0014 5.00373C24.3813 5.00373 22.8213 5.24618 21.357 5.68115L19.0446 0.761495C18.749 0.12404 17.9361 -0.173478 17.2491 0.104003C16.5539 0.376444 16.2337 1.11139 16.5321 1.74393L18.8393 6.66112C14.1402 8.99099 10.9463 13.5381 10.9463 18.7527C10.9463 19.4427 11.5594 20.0027 12.3148 20.0027H39.6831C40.4385 20.0027 41.0516 19.4427 41.0516 18.7527C41.0514 13.5381 37.8575 8.99099 33.1611 6.66112ZM20.5251 15.003C19.7698 15.003 19.1567 14.443 19.1567 13.753C19.1567 13.0631 19.7698 12.5031 20.5251 12.5031C21.2805 12.5031 21.8936 13.0631 21.8936 13.753C21.8936 14.443 21.2805 15.003 20.5251 15.003ZM31.4726 15.003C30.7172 15.003 30.1041 14.443 30.1041 13.753C30.1041 13.0631 30.7172 12.5031 31.4726 12.5031C32.2279 12.5031 32.841 13.0631 32.841 13.753C32.841 14.443 32.2279 15.003 31.4726 15.003Z" fill="url(#paint1_linear)"/>
<path d="M47.8943 22.5024C45.6309 22.5024 43.7891 24.1848 43.7891 26.2522V38.7513C43.7891 40.8187 45.6309 42.5011 47.8943 42.5011C50.1577 42.5011 51.9996 40.8187 51.9996 38.7513V26.2522C51.9996 24.1849 50.1577 22.5024 47.8943 22.5024Z" fill="url(#paint2_linear)"/>
<path d="M4.10526 22.5024C1.84185 22.5024 0 24.1848 0 26.2522V38.7513C0 40.8187 1.84185 42.5011 4.10526 42.5011C6.36867 42.5011 8.21052 40.8187 8.21052 38.7513V26.2522C8.21052 24.1849 6.36867 22.5024 4.10526 22.5024Z" fill="url(#paint3_linear)"/>
<defs>
<linearGradient id="paint0_linear" x1="25.9989" y1="22.5024" x2="25.9989" y2="59.9999" gradientUnits="userSpaceOnUse">
<stop stop-color="#B0FFC6"/>
<stop offset="1" stop-color="#00B4FF"/>
</linearGradient>
<linearGradient id="paint1_linear" x1="25.9989" y1="0" x2="25.9989" y2="20.0027" gradientUnits="userSpaceOnUse">
<stop stop-color="#B0FFC6"/>
<stop offset="1" stop-color="#00B4FF"/>
</linearGradient>
<linearGradient id="paint2_linear" x1="47.8943" y1="22.5024" x2="47.8943" y2="42.5011" gradientUnits="userSpaceOnUse">
<stop stop-color="#B0FFC6"/>
<stop offset="1" stop-color="#00B4FF"/>
</linearGradient>
<linearGradient id="paint3_linear" x1="4.10526" y1="22.5024" x2="4.10526" y2="42.5011" gradientUnits="userSpaceOnUse">
<stop stop-color="#B0FFC6"/>
<stop offset="1" stop-color="#00B4FF"/>
</linearGradient>
</defs>
</svg>
