<svg width="193" height="120" viewBox="0 0 193 120" fill="none" xmlns="http://www.w3.org/2000/svg">
<path d="M150.546 23.9998H42.4543C41.2428 23.9998 40.141 24.6773 39.631 25.7367L0 108L96.5 110.496L193 108L153.369 25.7367C152.859 24.6773 151.757 23.9998 150.546 23.9998Z" fill="#E8E8E8"/>
<path d="M189.887 120H3.11288C1.3936 120 0 118.657 0 117V108H193V117C193 118.657 191.606 120 189.887 120Z" fill="#CACACA"/>
<path d="M68.4844 64.9838H96.5007V91.0166H68.4844V64.9838Z" fill="#4C9BE8" fill-opacity="0.38"/>
<path d="M121.404 0H71.5967C70.5055 0 69.4579 0.180553 68.4842 0.511866L64.9209 8.99994V108.52C64.9209 113.49 69.1021 117.519 74.2595 117.519H121.403L130.211 114C130.555 113.061 130.742 112.052 130.742 111V8.99994C130.742 4.02916 126.561 0 121.404 0ZM124.516 111C124.516 112.657 123.123 114 121.404 114H71.5967C69.8775 114 68.4839 112.657 68.4839 111V8.99994C68.4839 7.34302 69.8775 5.99996 71.5967 5.99996H78.2748C79.5757 5.99996 80.8434 6.71672 81.2562 7.90574C82.0824 10.2852 84.4143 11.9999 87.1611 11.9999H105.838C108.586 11.9999 110.917 10.2852 111.743 7.90574C112.157 6.71672 113.424 5.99996 114.725 5.99996H121.403C123.122 5.99996 124.516 7.34302 124.516 8.99994V111H124.516Z" fill="#044D7C"/>
<path d="M68.4845 111V0.51001C64.8658 1.74989 62.2588 5.087 62.2588 8.99991V111C62.2588 115.97 66.44 120 71.5974 120H121.404C125.464 120 128.926 117.487 130.212 114H71.5974C69.8785 114 68.4845 112.657 68.4845 111Z" fill="#044D7C"/>
<path d="M96.5001 59.7275L118.306 77.9998L96.5163 91.0162L74.71 77.9998L96.5001 59.7275Z" fill="url(#paint0_linear)"/>
<path d="M96.5163 64.9838L74.71 77.9998V54L96.5163 40.9836L101.683 58.8193L96.5163 64.9838Z" fill="url(#paint1_linear)"/>
<path d="M96.5 64.9838L118.306 77.9998V54L96.5 40.9836V64.9838Z" fill="#1CCED6"/>
<defs>
<linearGradient id="paint0_linear" x1="96.5082" y1="59.7275" x2="96.5082" y2="91.0162" gradientUnits="userSpaceOnUse">
<stop stop-color="#B0FFC6"/>
<stop offset="1" stop-color="#00B4FF"/>
</linearGradient>
<linearGradient id="paint1_linear" x1="88.1966" y1="40.9836" x2="88.1966" y2="77.9998" gradientUnits="userSpaceOnUse">
<stop stop-color="#B0FFC6"/>
<stop offset="1" stop-color="#00B4FF"/>
</linearGradient>
</defs>
</svg>
