<svg width="15" height="15" viewBox="0 0 15 15" fill="none" xmlns="http://www.w3.org/2000/svg">
<path d="M1.04408 3.86932e-05C0.840268 0.00419338 0.642134 0.0562184 0.472977 0.149976C0.303821 0.243734 0.170677 0.375326 0.0892027 0.529296C0.00772861 0.683266 -0.0186874 0.85327 0.0130609 1.01919C0.0448092 1.1851 0.133402 1.3401 0.26842 1.46595L6.69323 7.6376C6.79373 7.73345 6.91811 7.81031 7.05791 7.86301C7.19771 7.91572 7.34965 7.94307 7.50339 7.94307C7.65713 7.94307 7.80907 7.91572 7.94887 7.86301C8.08867 7.81031 8.21305 7.73345 8.31355 7.6376L14.7384 1.46595C14.8297 1.37784 14.899 1.27575 14.9424 1.16556C14.9859 1.05538 15.0025 0.939268 14.9915 0.82378C14.9804 0.708292 14.9418 0.595681 14.878 0.492473C14.8141 0.389264 14.7262 0.297414 14.6192 0.222199C14.5123 0.146983 14.3884 0.0899246 14.2547 0.0541546C14.1209 0.0183845 13.9799 0.00464978 13.8398 0.0137711C13.6996 0.0228924 13.563 0.0546293 13.4377 0.107253C13.3124 0.159877 13.201 0.232347 13.1097 0.320462L7.49816 5.71018L1.88873 0.320462C1.78624 0.218182 1.65706 0.136265 1.51082 0.0808056C1.36458 0.0253464 1.20504 -0.00222603 1.04408 0.000140415V3.86932e-05ZM1.04408 7.05707C0.840276 7.06123 0.642151 7.11326 0.473002 7.20701C0.303853 7.30077 0.170714 7.43237 0.0892413 7.58633C0.00776862 7.74029 -0.0186505 7.91021 0.0130908 8.07612C0.0448321 8.24203 0.133414 8.39703 0.26842 8.52288L6.69323 14.6946C6.79373 14.7905 6.91811 14.8673 7.05791 14.92C7.19771 14.9728 7.34965 15 7.50339 15C7.65713 15 7.80907 14.9728 7.94887 14.92C8.08867 14.8673 8.21305 14.7905 8.31355 14.6946L14.7384 8.52288C14.8308 8.43485 14.9012 8.3327 14.9456 8.22219C14.99 8.11168 15.0075 7.99497 14.9971 7.87888C14.9866 7.76279 14.9485 7.64955 14.8848 7.54564C14.8211 7.44173 14.7331 7.34928 14.6259 7.27344C14.5187 7.19759 14.3944 7.13993 14.2601 7.10376C14.1258 7.06759 13.9842 7.05364 13.8433 7.06267C13.7024 7.0717 13.5651 7.1035 13.4392 7.15635C13.3133 7.2092 13.2013 7.28199 13.1097 7.37058L7.49816 12.7671L1.88873 7.37058C1.78545 7.26952 1.65592 7.18887 1.50972 7.13459C1.36353 7.0803 1.2044 7.0538 1.04408 7.05697V7.05707Z" fill="white"/>
</svg>
