<svg width="40" height="40" viewBox="0 0 40 40" fill="none" xmlns="http://www.w3.org/2000/svg">
<path d="M24.4055 20L39.361 5.04293C39.7724 4.6312 39.9993 4.08189 40 3.49616C40 2.91011 39.773 2.36015 39.361 1.94907L38.0504 0.638741C37.6384 0.226031 37.0891 0 36.5028 0C35.9174 0 35.3681 0.226031 34.9561 0.638741L20.0006 15.5948L5.04455 0.638741C4.63317 0.226031 4.08358 0 3.49756 0C2.91219 0 2.3626 0.226031 1.95122 0.638741L0.64 1.94907C-0.213333 2.80246 -0.213333 4.19052 0.64 5.04293L15.5958 20L0.64 34.9564C0.228293 35.3688 0.00162602 35.9181 0.00162602 36.5038C0.00162602 37.0896 0.228293 37.6389 0.64 38.0509L1.95089 39.3613C2.36228 39.7736 2.91219 40 3.49724 40C4.08325 40 4.63285 39.7736 5.04423 39.3613L20.0003 24.4048L34.9558 39.3613C35.3678 39.7736 35.9171 40 36.5024 40H36.5031C37.0888 40 37.638 39.7736 38.0501 39.3613L39.3606 38.0509C39.772 37.6392 39.999 37.0896 39.999 36.5038C39.999 35.9181 39.772 35.3688 39.3606 34.9567L24.4055 20Z" fill="url(#paint0_linear)"/>
<defs>
<linearGradient id="paint0_linear" x1="20" y1="0" x2="20" y2="40" gradientUnits="userSpaceOnUse">
<stop stop-color="#B0FFC6"/>
<stop offset="1" stop-color="#00B4FF"/>
</linearGradient>
</defs>
</svg>
