<svg width="40" height="40" viewBox="0 0 40 40" fill="none" xmlns="http://www.w3.org/2000/svg">
<path d="M40 20C40 31.0458 31.0458 40 20 40C8.95416 40 0 31.0458 0 20C0 8.95416 8.95416 0 20 0C31.0458 0 40 8.95416 40 20Z" fill="url(#paint0_linear)"/>
<path d="M30.5112 6.17188H9.48883C7.65991 6.17188 6.17188 7.65991 6.17188 9.48883V30.5112C6.17188 32.3401 7.65991 33.8281 9.48883 33.8281H30.5112C32.3401 33.8281 33.8281 32.3401 33.8281 30.5112V9.48883C33.8281 7.65991 32.3401 6.17188 30.5112 6.17188ZM31.4844 30.5112C31.4844 31.0477 31.0477 31.4844 30.5112 31.4844H24.3976V22.8424H27.7112L28.2587 19.5172H24.3976V17.2113C24.3976 16.301 25.0961 15.6024 26.0065 15.6024H28.205V12.2775H26.0065C23.2755 12.2775 21.0736 14.4897 21.0736 17.2208V19.5172H17.8549V22.8421H21.0736V31.4844H9.48883C8.95233 31.4844 8.51562 31.0477 8.51562 30.5112V9.48883C8.51562 8.95233 8.95233 8.51562 9.48883 8.51562H30.5112C31.0477 8.51562 31.4844 8.95233 31.4844 9.48883V30.5112Z" fill="white"/>
<defs>
<linearGradient id="paint0_linear" x1="20" y1="0" x2="20" y2="40" gradientUnits="userSpaceOnUse">
<stop stop-color="#B0FFC6"/>
<stop offset="1" stop-color="#00B4FF"/>
</linearGradient>
</defs>
</svg>
