<svg width="290" height="48" viewBox="0 0 290 48" fill="none" xmlns="http://www.w3.org/2000/svg">
<g opacity="1">
<path d="M25.5948 11.12H9.22682V18.896H24.2988V25.616H9.22682V38H0.682815V4.4H25.5948V11.12ZM40.0676 38H31.7636V2.384H40.0676V38ZM60.1934 11.84C64.6734 11.84 68.0334 13.216 70.2734 15.968C72.5454 18.72 73.5374 22.496 73.2494 27.296H55.0574C55.4734 28.832 56.2094 30.016 57.2654 30.848C58.3214 31.68 59.6174 32.096 61.1534 32.096C63.5214 32.096 65.5854 31.216 67.3454 29.456L71.7134 33.728C68.9294 36.768 65.1694 38.288 60.4334 38.288C56.2414 38.288 52.8974 37.088 50.4014 34.688C47.9374 32.288 46.7054 29.104 46.7054 25.136C46.7054 21.136 47.9374 17.92 50.4014 15.488C52.8974 13.056 56.1614 11.84 60.1934 11.84ZM54.9134 22.832H65.2814C65.2814 21.264 64.8174 20 63.8894 19.04C62.9934 18.08 61.7934 17.6 60.2894 17.6C58.8814 17.6 57.6974 18.08 56.7374 19.04C55.7774 19.968 55.1694 21.232 54.9134 22.832ZM89.4873 19.568L94.0953 12.128H103.167L94.9593 24.704L103.743 38H94.1913L89.4873 29.888L84.2073 38H75.0873L83.9193 24.752L75.6633 12.128H85.1673L89.4873 19.568Z" fill="#FFC84C"/>
<path d="M129.541 38L124.549 28.544H124.309H117.829V38H109.285V4.4H124.309C128.757 4.4 132.197 5.424 134.629 7.472C137.061 9.488 138.277 12.368 138.277 16.112C138.277 21.296 136.245 24.896 132.181 26.912L139.237 38H129.541ZM117.829 21.824H124.309C126.165 21.824 127.605 21.36 128.629 20.432C129.653 19.504 130.165 18.16 130.165 16.4C130.165 14.672 129.653 13.36 128.629 12.464C127.605 11.568 126.165 11.12 124.309 11.12H117.829V21.824ZM157.219 11.84C161.699 11.84 165.059 13.216 167.299 15.968C169.571 18.72 170.563 22.496 170.275 27.296H152.083C152.499 28.832 153.235 30.016 154.291 30.848C155.347 31.68 156.643 32.096 158.179 32.096C160.547 32.096 162.611 31.216 164.371 29.456L168.739 33.728C165.955 36.768 162.195 38.288 157.459 38.288C153.267 38.288 149.923 37.088 147.427 34.688C144.963 32.288 143.731 29.104 143.731 25.136C143.731 21.136 144.963 17.92 147.427 15.488C149.923 13.056 153.187 11.84 157.219 11.84ZM151.939 22.832H162.307C162.307 21.264 161.843 20 160.915 19.04C160.019 18.08 158.819 17.6 157.315 17.6C155.907 17.6 154.723 18.08 153.763 19.04C152.803 19.968 152.195 21.232 151.939 22.832ZM188.302 11.744C191.854 11.744 194.606 12.576 196.558 14.24C198.542 15.872 199.55 18.16 199.582 21.104V38H191.47V35.024C189.774 37.264 187.134 38.384 183.55 38.384C180.83 38.384 178.67 37.632 177.07 36.128C175.47 34.624 174.67 32.672 174.67 30.272C174.67 27.808 175.518 25.904 177.214 24.56C178.942 23.184 181.406 22.48 184.606 22.448H191.422V22.064C191.422 20.784 190.99 19.792 190.126 19.088C189.294 18.352 188.046 17.984 186.382 17.984C184.046 17.984 181.47 18.704 178.654 20.144L176.302 14.672C180.494 12.72 184.494 11.744 188.302 11.744ZM186.094 32.768C187.406 32.768 188.558 32.448 189.55 31.808C190.542 31.136 191.166 30.272 191.422 29.216V26.912H186.19C183.694 26.912 182.446 27.84 182.446 29.696C182.446 30.656 182.766 31.408 183.406 31.952C184.046 32.496 184.942 32.768 186.094 32.768ZM215.931 38H207.627V2.384H215.931V38ZM225.737 1.568C226.569 0.735998 227.625 0.319999 228.905 0.319999C230.185 0.319999 231.225 0.735998 232.025 1.568C232.857 2.368 233.273 3.408 233.273 4.688C233.273 5.968 232.857 7.024 232.025 7.856C231.225 8.688 230.185 9.104 228.905 9.104C227.625 9.104 226.569 8.688 225.737 7.856C224.937 7.024 224.537 5.968 224.537 4.688C224.537 3.408 224.937 2.368 225.737 1.568ZM232.985 38H224.729V12.128H232.985V38ZM256.627 30.848L258.259 36.608C256.243 37.792 253.939 38.384 251.347 38.384C248.787 38.384 246.707 37.68 245.107 36.272C243.539 34.832 242.755 32.8 242.755 30.176V18.752H239.155V13.328H242.755V6.128H251.011V13.28H257.779V18.752H251.011V28.88C251.011 29.872 251.203 30.608 251.587 31.088C252.003 31.536 252.611 31.744 253.411 31.712C254.179 31.712 255.251 31.424 256.627 30.848ZM289.199 12.128L278.015 40.688C276.095 45.36 272.767 47.696 268.031 47.696C265.279 47.696 262.767 46.816 260.495 45.056L263.951 39.392C265.103 40.32 266.239 40.784 267.359 40.784C268.831 40.784 269.903 40.096 270.575 38.72L271.199 37.424L260.447 12.128H268.991L275.327 29.312L280.943 12.128H289.199Z" fill="white"/>
</g>
</svg>
