<svg width="1027" height="551" viewBox="0 0 1027 551" fill="none" xmlns="http://www.w3.org/2000/svg">
<path d="M502.5 549H32V278V141.5V84.31C32 75.5198 35.0474 67.0014 40.6232 60.206L63.471 32.3602L78.8371 17.5974C85.9148 10.7976 95.349 7 105.164 7H148.125H266.25H502.5H973V278V399.559C973 408.713 969.696 417.559 963.694 424.471L917.49 477.689L917.486 477.693L867.328 535.825C860.109 544.19 849.607 549 838.557 549H738.75H502.5Z" stroke="url(#paint0_linear)" stroke-width="4"/>
<g filter="url(#filter0_d)">
<path d="M66 17L41 44" stroke="url(#paint1_linear)" stroke-width="4" stroke-linecap="round" stroke-linejoin="round"/>
</g>
<g filter="url(#filter1_d)">
<path d="M959 448L894 525" stroke="url(#paint2_linear)" stroke-width="4" stroke-linecap="round" stroke-linejoin="round"/>
</g>
<path d="M401 538H695" stroke="url(#paint3_linear)" stroke-width="4"/>
<path d="M41 538H335" stroke="url(#paint4_linear)" stroke-width="4"/>
<defs>
<filter id="filter0_d" x="24" y="0" width="59" height="61" filterUnits="userSpaceOnUse" color-interpolation-filters="sRGB">
<feFlood flood-opacity="0" result="BackgroundImageFix"/>
<feColorMatrix in="SourceAlpha" type="matrix" values="0 0 0 0 0 0 0 0 0 0 0 0 0 0 0 0 0 0 127 0"/>
<feOffset/>
<feGaussianBlur stdDeviation="7.5"/>
<feColorMatrix type="matrix" values="0 0 0 0 0.164706 0 0 0 0 0.964706 0 0 0 0 1 0 0 0 1 0"/>
<feBlend mode="normal" in2="BackgroundImageFix" result="effect1_dropShadow"/>
<feBlend mode="normal" in="SourceGraphic" in2="effect1_dropShadow" result="shape"/>
</filter>
<filter id="filter1_d" x="872" y="426" width="109" height="121" filterUnits="userSpaceOnUse" color-interpolation-filters="sRGB">
<feFlood flood-opacity="0" result="BackgroundImageFix"/>
<feColorMatrix in="SourceAlpha" type="matrix" values="0 0 0 0 0 0 0 0 0 0 0 0 0 0 0 0 0 0 127 0"/>
<feOffset/>
<feGaussianBlur stdDeviation="10"/>
<feColorMatrix type="matrix" values="0 0 0 0 0.164706 0 0 0 0 0.964706 0 0 0 0 1 0 0 0 1 0"/>
<feBlend mode="normal" in2="BackgroundImageFix" result="effect1_dropShadow"/>
<feBlend mode="normal" in="SourceGraphic" in2="effect1_dropShadow" result="shape"/>
</filter>
<linearGradient id="paint0_linear" x1="502.5" y1="5" x2="502.5" y2="551" gradientUnits="userSpaceOnUse">
<stop stop-color="#B0FFC6"/>
<stop offset="1" stop-color="#00B4FF"/>
</linearGradient>
<linearGradient id="paint1_linear" x1="53.5" y1="17" x2="53.5" y2="44" gradientUnits="userSpaceOnUse">
<stop stop-color="#B0FFC6"/>
<stop offset="1" stop-color="#00B4FF"/>
</linearGradient>
<linearGradient id="paint2_linear" x1="926.5" y1="448" x2="926.5" y2="525" gradientUnits="userSpaceOnUse">
<stop stop-color="#B0FFC6"/>
<stop offset="1" stop-color="#00B4FF"/>
</linearGradient>
<linearGradient id="paint3_linear" x1="548" y1="538" x2="548" y2="539" gradientUnits="userSpaceOnUse">
<stop stop-color="#B0FFC6"/>
<stop offset="1" stop-color="#00B4FF"/>
</linearGradient>
<linearGradient id="paint4_linear" x1="188" y1="538" x2="188" y2="539" gradientUnits="userSpaceOnUse">
<stop stop-color="#B0FFC6"/>
<stop offset="1" stop-color="#00B4FF"/>
</linearGradient>
</defs>
</svg>
