<svg width="40" height="40" viewBox="0 0 40 40" fill="none" xmlns="http://www.w3.org/2000/svg">
<path d="M39.5312 14.3046L20.7031 0.246333C20.328 -0.0582632 19.7655 -0.105124 19.3202 0.246333L0.492109 14.3046C0.328047 14.3983 0.210859 14.5389 0.140625 14.703L20 38.8285L39.8827 14.703C39.8125 14.5389 39.6953 14.3984 39.5312 14.3046Z" fill="url(#paint0_linear)"/>
<path d="M14.152 16.4031H16.4958V24.6037C16.4958 25.2513 17.0199 25.7753 17.6677 25.7753H22.3552C23.0029 25.7753 23.527 25.2513 23.527 24.6037V16.4031H25.8708C26.3251 16.4031 26.7394 16.1399 26.9316 15.728C27.1251 15.3173 27.0621 14.8311 26.7714 14.481L20.912 7.45184C20.4657 6.91872 19.557 6.91872 19.1107 7.45184L13.2513 14.481C12.9606 14.831 12.8977 15.3173 13.0911 15.728C13.2834 16.1399 13.6977 16.4031 14.152 16.4031ZM39.8827 14.7029L20 31.6431L0.140625 14.7029C0.0467969 14.8669 0 15.0543 0 15.2417V38.8284C0 39.4611 0.538984 39.9999 1.17188 39.9999H38.8281C39.4843 39.9999 40 39.4611 40 38.8284V15.2417C40 15.0543 39.9765 14.8669 39.8827 14.7029Z" fill="url(#paint1_linear)"/>
<defs>
<linearGradient id="paint0_linear" x1="20.0117" y1="38.8285" x2="20.0117" y2="0" gradientUnits="userSpaceOnUse">
<stop stop-color="#C3FFE8"/>
<stop offset="0.9973" stop-color="#F0FFF4"/>
</linearGradient>
<linearGradient id="paint1_linear" x1="20" y1="7.052" x2="20" y2="39.9999" gradientUnits="userSpaceOnUse">
<stop stop-color="#B0FFC6"/>
<stop offset="1" stop-color="#00B4FF"/>
</linearGradient>
</defs>
</svg>
