<svg width="40" height="40" viewBox="0 0 40 40" fill="none" xmlns="http://www.w3.org/2000/svg">
<path d="M40 20C40 31.0458 31.0458 40 20 40C8.95416 40 0 31.0458 0 20C0 8.95416 8.95416 0 20 0C31.0458 0 40 8.95416 40 20Z" fill="url(#paint0_linear)"/>
<path d="M25.7529 33.8281H14.2471C9.79431 33.8281 6.17188 30.2057 6.17188 25.7529V14.2471C6.17188 9.79431 9.79431 6.17188 14.2471 6.17188H25.7529C30.2057 6.17188 33.8281 9.79431 33.8281 14.2471V25.7529C33.8281 30.2057 30.2057 33.8281 25.7529 33.8281ZM14.2471 8.51562C11.0867 8.51562 8.51562 11.0867 8.51562 14.2471V25.7529C8.51562 28.9133 11.0867 31.4844 14.2471 31.4844H25.7529C28.9133 31.4844 31.4844 28.9133 31.4844 25.7529V14.2471C31.4844 11.0867 28.9133 8.51562 25.7529 8.51562H14.2471Z" fill="white"/>
<path d="M20 27.5C15.8646 27.5 12.5 24.1354 12.5 20C12.5 15.8646 15.8646 12.5 20 12.5C24.1354 12.5 27.5 15.8646 27.5 20C27.5 24.1354 24.1354 27.5 20 27.5ZM20 14.8438C17.1567 14.8438 14.8438 17.1567 14.8438 20C14.8438 22.8433 17.1567 25.1562 20 25.1562C22.8433 25.1562 25.1562 22.8433 25.1562 20C25.1562 17.1567 22.8433 14.8438 20 14.8438Z" fill="white"/>
<path d="M28.5809 12.4921C28.5809 13.0845 28.1006 13.5648 27.5082 13.5648C26.9159 13.5648 26.4355 13.0845 26.4355 12.4921C26.4355 11.8998 26.9159 11.4194 27.5082 11.4194C28.1006 11.4194 28.5809 11.8998 28.5809 12.4921Z" fill="white"/>
<defs>
<linearGradient id="paint0_linear" x1="20" y1="0" x2="20" y2="40" gradientUnits="userSpaceOnUse">
<stop stop-color="#B0FFC6"/>
<stop offset="1" stop-color="#00B4FF"/>
</linearGradient>
</defs>
</svg>
