<svg width="52" height="60" viewBox="0 0 52 60" fill="none" xmlns="http://www.w3.org/2000/svg">
<path d="M17.2402 60C7.8048 59.9486 0 41.7198 0 32.4364C0 17.2718 12.0201 13.9519 16.6526 13.9519C18.7402 13.9519 20.9694 14.7278 22.9356 15.4144C24.3105 15.8934 25.7325 16.3878 26.5233 16.3878C26.9967 16.3878 28.1122 15.9672 29.0971 15.5982C31.1975 14.8068 33.8112 13.8232 36.8547 13.8232C36.8602 13.8232 36.8675 13.8232 36.8728 13.8232C39.1455 13.8232 46.0362 14.2953 50.1789 20.1832L51.1493 21.5634L49.7527 22.5607C47.7576 23.9855 44.1172 26.5845 44.1172 31.7327C44.1172 37.83 48.24 40.175 50.2207 41.3028C51.095 41.8006 52 42.3139 52 43.4365C52 44.1695 45.8185 59.9091 36.842 59.9091C34.6455 59.9091 33.0929 59.2843 31.7234 58.7332C30.3377 58.1753 29.1423 57.6947 27.1671 57.6947C26.1659 57.6947 24.8998 58.1427 23.5594 58.6183C21.7277 59.2653 19.6544 60 17.3019 60H17.2402Z" fill="url(#paint0_linear)"/>
<path d="M37.8049 0C38.0387 7.97766 32.0103 13.5122 25.9891 13.1651C24.9969 6.79863 32.0096 0 37.8049 0Z" fill="url(#paint1_linear)"/>
<defs>
<linearGradient id="paint0_linear" x1="26" y1="13.8232" x2="26" y2="60" gradientUnits="userSpaceOnUse">
<stop stop-color="#B0FFC6"/>
<stop offset="1" stop-color="#00B4FF"/>
</linearGradient>
<linearGradient id="paint1_linear" x1="31.853" y1="0" x2="31.853" y2="13.1805" gradientUnits="userSpaceOnUse">
<stop stop-color="#B0FFC6"/>
<stop offset="1" stop-color="#00B4FF"/>
</linearGradient>
</defs>
</svg>
