<svg width="134" height="130" viewBox="0 0 134 130" fill="none" xmlns="http://www.w3.org/2000/svg">
<path fill-rule="evenodd" clip-rule="evenodd" d="M51.2795 31.1009C62.0121 27.9177 69.3112 12.567 63.495 6.93179C58.1313 1.78764 50.5457 1.04166 48.3752 0.500332C47.779 0.35205 47.1601 0.233475 46.5257 0.151717C37.7058 -0.982485 25.2555 4.28938 14.8383 14.3956C4.42115 24.5019 -1.01291 36.5731 0.156449 45.1372C0.240461 45.7526 0.362684 46.3531 0.515789 46.9315C1.07377 49.0298 1.84087 55.8353 6.15478 60.5536C11.5161 66.4176 29.8817 62.2266 31.4771 50.0901C27.2048 51.3952 23.3756 51.0763 21.0675 48.8445C16.6348 44.5364 19.5312 34.7417 27.5411 26.9635C35.5584 19.193 45.6547 16.3827 50.0953 20.6831C52.4565 22.9818 52.7391 26.8302 51.2795 31.1009Z" fill="url(#paint0_linear)"/>
<path fill-rule="evenodd" clip-rule="evenodd" d="M77.2041 37.8929L52.1615 46.9521L39.0586 74.8999C42.3298 75.7154 45.7536 77.7322 49.0706 80.4833L105.475 125.268C111.979 131.578 122.618 131.578 129.122 125.268C135.626 118.958 135.626 108.637 129.122 102.327L82.959 47.6062C80.1236 44.3881 78.0523 41.0663 77.2041 37.8929Z" fill="url(#paint1_linear)"/>
<path fill-rule="evenodd" clip-rule="evenodd" d="M42.6508 41.5114C28.7561 54.9469 11.2922 59.796 3.61097 52.337C2.09771 50.8689 1.07361 49.0301 0.515625 46.9316V61.5533C0.683648 65.1494 0.913176 68.5454 1.18065 71.8599C1.76141 78.9929 2.02129 80.3645 6.1944 82.6779L13.5545 86.7559C20.624 90.6782 20.5706 92.0722 23.6429 85.8067L25.3014 82.4257C28.7407 75.4039 33.701 73.5578 39.0587 74.8997L77.2042 37.8927C75.8207 32.695 77.7315 27.883 84.9618 24.5461L88.4468 22.9371C94.905 19.9565 93.4682 20.0009 89.4251 13.1498L85.2217 6.00939C82.8369 1.96109 81.4228 1.70896 74.0706 1.14554C70.662 0.878688 67.1615 0.663628 63.4548 0.500366H48.3753C50.546 1.0417 52.4338 2.03523 53.9471 3.50332C61.6358 10.9552 56.6373 27.8977 42.7884 41.3779C42.7654 41.4002 42.7426 41.4223 42.7196 41.4446C42.6966 41.4667 42.6738 41.4891 42.6508 41.5114Z" fill="#E8E8E8"/>
<path fill-rule="evenodd" clip-rule="evenodd" d="M75.4993 67.2552C73.7949 65.6018 71.0283 65.6018 69.3237 67.2552C67.6192 68.9087 67.6194 71.5853 69.3237 73.2464C71.0281 74.8998 73.7947 74.8998 75.4993 73.2464C77.2038 71.5853 77.2038 68.9087 75.4993 67.2552Z" fill="url(#paint2_linear)"/>
<path fill-rule="evenodd" clip-rule="evenodd" d="M96.4026 78.8964C92.2449 74.8555 85.4887 74.8555 81.3232 78.8964C77.1579 82.9373 77.1579 89.4846 81.3232 93.5258C85.4884 97.5667 92.2447 97.5667 96.4026 93.5258C100.568 89.4846 100.568 82.9373 96.4026 78.8964Z" fill="white"/>
<path fill-rule="evenodd" clip-rule="evenodd" d="M108.41 99.1831C106.706 97.5296 103.939 97.5296 102.234 99.1831C100.53 100.837 100.53 103.521 102.234 105.174C103.939 106.828 106.705 106.828 108.41 105.174C110.114 103.521 110.114 100.837 108.41 99.1831Z" fill="url(#paint3_linear)"/>
<path fill-rule="evenodd" clip-rule="evenodd" d="M72.5344 42.4232L77.2042 37.8927C75.8208 32.695 77.7316 27.8829 84.9618 24.5461L88.4469 22.9371C94.905 19.9565 93.4682 20.0009 89.4252 13.1497L85.2217 6.00935C82.8369 1.96106 81.4229 1.70893 74.0707 1.14551L73.4821 1.10107C73.6501 1.36057 73.8184 1.63504 73.9942 1.9316L78.1977 9.07197C82.2407 15.9305 83.6776 15.8787 77.2194 18.8593L73.7343 20.4683C66.4965 23.8049 66.8865 30.8414 68.2621 36.0318L72.5344 42.4232Z" fill="#0B173B"/>
<path fill-rule="evenodd" clip-rule="evenodd" d="M129.122 102.327L82.9588 47.6062C80.1233 44.3881 78.0521 41.0663 77.2036 37.8929L39.0581 74.8999C41.909 75.6116 44.8743 77.2282 47.7862 79.4524L75.9118 51.8548C77.0429 50.7427 77.2416 50.2458 78.625 51.8103L124.788 106.531C130.405 111.974 130.329 121.235 126.248 127.5C127.272 126.877 128.235 126.128 129.121 125.268C135.626 118.958 135.626 108.637 129.122 102.327Z" fill="#0B173B"/>
<defs>
<linearGradient id="paint0_linear" x1="32.7753" y1="0" x2="32.7753" y2="63.1734" gradientUnits="userSpaceOnUse">
<stop stop-color="#071846"/>
<stop offset="1" stop-color="#2AF6FF"/>
</linearGradient>
<linearGradient id="paint1_linear" x1="86.5293" y1="37.8929" x2="86.5293" y2="130.001" gradientUnits="userSpaceOnUse">
<stop stop-color="#071845"/>
<stop offset="1" stop-color="#238BD2"/>
</linearGradient>
<linearGradient id="paint2_linear" x1="72.4116" y1="66.0151" x2="72.4116" y2="74.4865" gradientUnits="userSpaceOnUse">
<stop stop-color="#B0FFC6"/>
<stop offset="1" stop-color="#00B4FF"/>
</linearGradient>
<linearGradient id="paint3_linear" x1="105.322" y1="97.943" x2="105.322" y2="106.414" gradientUnits="userSpaceOnUse">
<stop stop-color="#B0FFC6"/>
<stop offset="1" stop-color="#00B4FF"/>
</linearGradient>
</defs>
</svg>
