<svg width="97" height="83" viewBox="0 0 97 83" fill="none" xmlns="http://www.w3.org/2000/svg">
<path d="M42.5439 72.8367C45.359 72.8367 47.6492 75.1163 47.6492 77.9184C47.6492 80.7205 45.359 83 42.5439 83C39.7288 83 37.4387 80.7205 37.4387 77.9184C37.4387 75.1163 39.7288 72.8367 42.5439 72.8367ZM86.7895 22.0204C86.7895 19.2183 89.0796 16.9388 91.8947 16.9388C94.7099 16.9388 97 19.2183 97 22.0204C97 24.8225 94.7099 27.102 91.8947 27.102C89.0796 27.102 86.7895 24.8225 86.7895 22.0204ZM74.8772 1.69388C74.8772 0.758434 74.1153 0 73.1755 0C72.2357 0 71.4737 0.758434 71.4737 1.69388C71.4737 2.62932 72.2357 3.38775 73.1755 3.38775C74.1153 3.38775 74.8772 2.62932 74.8772 1.69388ZM52.7544 74.5306C52.7544 75.4661 53.5164 76.2245 54.4562 76.2245C55.396 76.2245 56.1579 75.4661 56.1579 74.5306C56.1579 73.5952 55.396 72.8367 54.4562 72.8367C53.5164 72.8367 52.7544 73.5952 52.7544 74.5306ZM0.498718 42.8432L26.025 17.4351C26.5121 16.9502 27.243 16.805 27.8795 17.0679C28.516 17.3292 28.9299 17.9479 28.9299 18.6327V30.4898H34.0352C34.5853 30.4898 35.1005 30.7545 35.4195 31.1995L52.4379 54.9138C52.8076 55.43 52.8574 56.108 52.566 56.6738C52.2741 57.2378 51.69 57.5918 51.0527 57.5918H28.9299V69.449C28.9299 70.1337 28.516 70.7524 27.8795 71.0137C27.6685 71.1014 27.4473 71.1429 27.2281 71.1429C26.7861 71.1429 26.3509 70.9709 26.025 70.6465L0.498718 45.2384C-0.166237 44.5769 -0.166237 43.5047 0.498718 42.8432ZM25.5264 65.36V55.898C25.5264 54.9617 26.2875 54.2041 27.2281 54.2041H47.7458L33.1596 33.8776H27.2281C26.2875 33.8776 25.5264 33.12 25.5264 32.1837V22.7217L4.10815 44.0408L25.5264 65.36ZM39.4578 33.1678L56.4745 56.8821C56.8067 57.3454 57.3304 57.5918 57.8614 57.5918C58.2039 57.5918 58.5493 57.4894 58.8484 57.2759C59.6138 56.7335 59.7908 55.6748 59.2449 54.9138L42.2265 31.1995C41.6782 30.4403 40.618 30.2632 39.8534 30.8057C39.0889 31.3482 38.9111 32.4068 39.4578 33.1678ZM46.2648 33.1678L63.2815 56.8821C63.6137 57.3454 64.1375 57.5918 64.6684 57.5918C65.0109 57.5918 65.3563 57.4894 65.6554 57.2759C66.4208 56.7335 66.5978 55.6748 66.0519 54.9138L49.0336 31.1995C48.4869 30.4403 47.4233 30.2632 46.6605 30.8057C45.8959 31.3482 45.7181 32.4068 46.2648 33.1678ZM53.071 33.1678L70.0885 56.8821C70.4208 57.3454 70.9445 57.5918 71.4754 57.5918C71.8179 57.5918 72.1633 57.4894 72.4624 57.2759C73.2278 56.7335 73.4048 55.6748 72.8589 54.9138L55.8414 31.1995C55.2947 30.4369 54.2311 30.2599 53.4675 30.8057C52.7021 31.3482 52.5251 32.4068 53.071 33.1678ZM59.878 33.1678L76.8955 56.8821C77.2278 57.3454 77.7515 57.5918 78.2824 57.5918C78.6249 57.5918 78.9704 57.4894 79.2694 57.2759C80.0348 56.7335 80.2118 55.6748 79.6659 54.9138L62.6484 31.1995C62.1026 30.4369 61.0398 30.2599 60.2745 30.8057C59.5091 31.3482 59.3321 32.4068 59.878 33.1678ZM66.685 33.1678L83.7025 56.8821C84.0348 57.3454 84.5585 57.5918 85.0894 57.5918C85.4319 57.5918 85.7774 57.4894 86.0765 57.2759C86.8418 56.7335 87.0188 55.6748 86.473 54.9138L69.4554 31.1995C68.9096 30.4369 67.846 30.2599 67.0815 30.8057C66.3161 31.3482 66.1391 32.4068 66.685 33.1678ZM73.492 33.1678L90.5095 56.8821C90.8418 57.3454 91.3655 57.5918 91.8964 57.5918C92.2389 57.5918 92.5844 57.4894 92.8835 57.2759C93.6488 56.7335 93.8258 55.6748 93.28 54.9138L76.2624 31.1995C75.7158 30.4369 74.6522 30.2599 73.8885 30.8057C73.1231 31.3482 72.9462 32.4068 73.492 33.1678Z" fill="url(#paint0_linear)"/>
<defs>
<linearGradient id="paint0_linear" x1="48.5" y1="0" x2="48.5" y2="83" gradientUnits="userSpaceOnUse">
<stop stop-color="#B0FFC6"/>
<stop offset="1" stop-color="#00B4FF"/>
</linearGradient>
</defs>
</svg>
