<svg width="2564" height="287" viewBox="0 0 2564 287" fill="none" xmlns="http://www.w3.org/2000/svg">
<path d="M2 2.00001C329.63 2.00001 290.883 228.832 618.514 228.832C946.144 228.832 907.397 168.343 1235.03 168.343C1562.66 168.343 1512.17 68.9694 1839.8 68.9694C2167.43 68.9694 2222.94 17.918 2550.57 17.918" stroke="url(#paint0_linear)" stroke-width="3" stroke-linecap="round"/>
<path d="M2 2.00032C322.119 2.00032 362.982 159.702 683.101 159.702C1003.22 159.702 950.138 285 1270.26 285C1590.38 285 1584.27 107.855 1904.39 107.855C2224.5 107.855 2241.88 18.5699 2562 18.5699" stroke="url(#paint1_linear)" stroke-width="3" stroke-linecap="round"/>
<defs>
<linearGradient id="paint0_linear" x1="2550.57" y1="228.832" x2="94.9167" y2="228.832" gradientUnits="userSpaceOnUse">
<stop stop-color="#4DFFDF"/>
<stop offset="1" stop-color="#4DA1FF"/>
</linearGradient>
<linearGradient id="paint1_linear" x1="1282" y1="285" x2="1282" y2="2.00034" gradientUnits="userSpaceOnUse">
<stop stop-color="#FFC84C"/>
<stop offset="1" stop-color="#00B4FF"/>
</linearGradient>
</defs>
</svg>
