<svg width="263" height="65" viewBox="0 0 263 65" fill="none" xmlns="http://www.w3.org/2000/svg">
<path d="M113.327 0H118.091V31.5803L135.248 15.4417H142.241L121.899 34.5209L143.43 55.4258H136.727L118.091 37.4197V55.4258H113.327V0Z" fill="#00FFFF"/>
<path d="M0 55.7879V0.13916H5.61291V22.5422C7.77932 20.0204 10.4707 17.9862 13.505 16.5774C16.5049 15.2462 19.763 14.5733 23.0533 14.6053C25.9735 14.5528 28.8752 15.0721 31.5897 16.1332C34.3042 17.1943 36.7775 18.7759 38.8658 20.7862C40.9677 22.6928 42.6373 25.0145 43.7655 27.5998C44.8937 30.185 45.4551 32.9755 45.413 35.7889C45.4451 38.5873 44.8722 41.3605 43.7324 43.9242C42.5926 46.488 40.912 48.7838 38.8021 50.6593C34.5487 54.7033 28.8382 56.919 22.9259 56.8192C19.5843 56.869 16.2767 56.1533 13.2643 54.7287C10.2607 53.2226 7.64426 51.0637 5.61291 48.4155V55.7949L0 55.7879ZM22.4587 51.8369C25.4729 51.8723 28.4468 51.1529 31.1011 49.7464C33.7137 48.361 35.8939 46.3013 37.4077 43.7885C38.9459 41.3439 39.7608 38.5252 39.7608 35.6496C39.7608 32.7739 38.9459 29.9552 37.4077 27.5106C35.876 24.9702 33.6749 22.885 31.0374 21.4761C28.4393 20.0563 25.5152 19.315 22.5437 19.3229C19.494 19.319 16.4908 20.0587 13.8023 21.4761C11.1683 22.7769 8.96336 24.7868 7.44356 27.2723C5.92377 29.7578 5.1515 32.6168 5.21654 35.5172C5.16183 37.6953 5.57492 39.8603 6.42873 41.8704C7.28254 43.8806 8.55783 45.6906 10.1712 47.1821C11.8049 48.7194 13.7321 49.9224 15.8413 50.7214C17.9505 51.5204 20.1997 51.8996 22.4587 51.8369Z" fill="#00FFFF"/>
<path d="M147.903 24.814L147.387 25.2321L146.474 25.3018L146.105 24.814L146.693 23.8105L147.535 24.0823L147.903 24.814ZM156.015 20.0268L154.946 21.518L154.139 22.2148L153.29 22.6747L152.186 23.1973H151.202L150.062 22.7444L149.475 21.9848L149.107 21.0441L149.475 19.9013L149.765 18.863L150.133 17.7899L150.062 16.9189L150.133 16.2987L150.975 15.0165L151.683 14.0061L152.525 13.0376L153.191 12.1735L153.814 11.4767L154.62 11.1631L154.911 11.9644L154.769 12.7588L154.104 13.7274L153.29 14.7936L152.582 16.1454L152.214 17.2882L152.363 18.2568L152.731 18.3962L153.502 18.2568L154.748 18.1871L155.3 18.8491L155.817 19.2672L156.015 20.0268Z" fill="#00FFFF"/>
<path d="M191.512 16.3544L191.363 16.9746L190.924 17.5668L190.301 18.2637L189.856 19.2741L189.346 20.3472L188.638 21.3855L187.973 22.6746L187.534 24.1658L186.762 25.8661L186.055 27.4967L184.844 29.9216L184.554 30.8623L184.292 32.1445L184.002 33.3222L183.705 34.7158L183.414 36.5903L183.117 38.2905L182.714 40.1232L182.643 41.4123L182.275 42.7642L181.907 44.1578L181.397 45.44L180.038 47.9695L179.819 48.7639L179.111 49.9137L178.233 50.7429L177.752 51.8857L177.094 52.687L176.797 53.9343L176.322 55.1468L175.147 56.1503L173.732 56.7774L172.592 56.638L171.453 56.1503L170.872 55.1468L170.646 54.004V52.8961L171.014 51.9554L170.646 51.0216L170.242 49.7743L170.171 48.6245L170.242 47.0706L169.952 45.9905V44.6387L169.513 44.0185L169.584 43.0778L169.216 42.2137L168.508 39.8236L167.991 38.9525L167.772 37.9143L167.475 36.6321L167.701 35.4196L166.739 34.5904L166.3 33.0992L165.634 32.1306L165.38 31.0575L164.615 30.0471L163.695 29.0785L162.888 28.4165L162.117 27.2737L161.607 26.5769L161.756 25.4271L162.194 24.2843L162.902 23.5247L164.006 22.8628H165.217L166.356 23.3157L167.715 23.9359L168.848 25.1553L169.733 27.0577L169.952 28.4513V30.5418L170.575 32.3118L171.162 33.6636L171.821 35.0573L172.224 37.099L172.521 38.9386L173.031 40.5692L173.328 41.8513L173.583 43.2032L173.732 44.5968L173.951 45.8093L174.468 46.2274L175.31 45.9487L175.968 45.3285L176.407 44.0464L176.811 43.036L177.257 42.1022L177.766 40.8549L178.248 40.158L178.467 38.9456L179.125 37.4544L179.642 36.1025L180.194 34.9249L180.484 33.9911L180.923 33.1201L180.852 32.0818L181.404 31.1411L181.326 30.277L182.282 29.6568L182.721 28.0959L183.492 26.8765L184.151 25.4828L184.781 24.4097L185.368 23.5108L186.076 22.2983L186.961 21.1485L186.883 20.3193L187.654 18.9257L187.803 17.7829L188.171 17.1209L188.829 16.7028L189.303 15.8039L189.891 15.3509L190.599 15.2812L191.307 15.7342L191.512 16.3544Z" fill="#00FFFF"/>
<path d="M192.219 55.4673L191.893 55.6067L191.525 55.4673V55.1189L191.745 54.9795L192.148 55.0492L192.219 55.2582V55.4673ZM226.314 61.6063L226.024 61.9478L225.436 62.1568L225.217 61.8154L224.814 61.2928L224.297 60.3242L223.589 59.3904L222.527 57.6275L221.756 55.9272L221.466 54.7147L220.949 54.0597L220.036 51.5999L219.328 50.7358L218.741 49.4536L217.898 48.1785L217.24 47.621L215.577 45.9974L215.251 45.0636L213.998 44.2274L212.42 43.9557L210.735 44.1577L209.008 44.4365L207.755 44.9173L206.403 46.0531L205.115 46.6733L204.818 47.2586L203.827 47.9555L201.739 49.0983L201.336 49.5094L201.038 51.0703V52.0737L200.522 52.6312V53.8437L200.302 55.1258L200.522 57.2163L200.302 58.61L199.863 60.1012L199.156 61.2788L198.349 62.2126L196.99 63.3554L195.709 63.5644L194.498 63.7038L194.13 63.4251H193.422L192.913 62.8397L192.545 62.561V61.8642L192.177 61.3485V59.9549L192.545 59.049L192.474 58.2546L192.693 57.7668L193.132 57.5578V56.9027L193.84 56.5543L194.13 55.9342L194.569 55.0631L195.192 54.7844L195.779 53.5022L195.999 52.1086L196.367 51.8995L196.225 50.9658L196.515 49.5721V48.6732L195.857 47.3144L195.411 46.1019L195.27 44.75L195.192 43.8163L195.411 43.5376L195.27 43.0498V42.778L196.367 41.4959V41.0778L196.99 40.4158L197.797 39.2033L198.795 37.8514L199.014 36.8828L199.085 36.186L199.014 35.6355L199.375 33.8656L199.672 32.1653L200.295 30.0121L200.444 28.7996L200.734 28.2491L200.663 26.4095L200.515 24.7789L200.663 23.218L201.251 21.9359L201.803 20.9324L202.461 20.4447L202.68 19.5109L203.155 18.8838L203.381 18.2915L203.155 17.8803L203.303 16.9396L202.765 15.7062L202.914 14.5634L202.475 14.0408L202.695 13.1419H203.169L203.983 12.5496L204.422 12.4799L204.747 11.9294L205.922 11.79L206.913 12.2081L207.763 13.4206L208.123 13.6297L208.711 14.7028L209.419 15.9849L209.709 17.1974L210.374 18.5911L211.217 19.6642L211.287 20.2565L211.875 20.8836L212.243 21.5805L212.951 22.4794L212.873 23.3504L213.538 24.6326L213.609 25.1901L214.012 25.8869L214.381 27.0994L214.968 28.1098L215.187 29.8031L215.52 31.0225L215.959 32.7158V33.343L216.327 34.2767L216.837 35.9073L217.318 37.3985L217.459 38.611L217.828 39.482L218.818 40.1022L219.993 40.4506L221.409 40.3809H222.768L224.127 40.6597L224.346 41.0429L224.644 41.3913L224.346 41.5934L224.127 41.9418L223.54 42.5341L222.768 42.6038L222.478 42.9453L221.338 43.1543L220.057 43.7118L219.54 44.1647V44.9939L219.76 45.9974L220.241 47.0078L220.829 47.9764L221.338 49.37L221.706 50.2341L222.181 51.5859L222.697 52.8054L223.469 54.2966L223.978 55.5439L224.276 57.4811L224.644 57.6902L225.118 58.7006L225.635 59.6692V60.3033L226.003 60.6447L226.314 61.6063ZM193.543 64.7212L193.465 64.9999L192.955 64.9302L192.736 64.4146L193.104 64.3449H193.543V64.7212ZM196.862 38.0047L196.784 38.3532L196.459 38.5552L196.013 38.2835V37.9351L196.381 37.5518L196.784 37.4124L196.862 37.6215V38.0047ZM212.583 39.1127L212.25 38.3532L211.542 37.064L211.401 35.8515L211.033 35.301L210.778 34.5694L210.332 33.8726L210.41 32.0329L209.454 30.8204L209.744 30.2978L209.383 29.4686L208.902 26.967L208.322 25.8242L208.244 24.9253L207.402 23.9149L207.083 23.3713L206.375 21.8801L204.868 23.2738L205.016 24.1727L204.464 24.974V25.8033L204.315 26.2562L204.018 27.6499L203.87 28.8972V29.2804L203.501 29.7613V30.7717L203.353 32.7437V33.6844L202.949 34.5136L203.211 35.3847L202.801 36.4578L203.431 37.287L205.151 37.9838L206.956 38.604L208.456 39.4054L209.306 39.9559L210.771 40.2346L211.762 40.0255L212.059 39.8165L212.583 39.1127ZM209.044 39.2521L208.605 39.3566L208.237 39.1127L208.307 38.834H208.676L208.895 38.6946L209.044 38.9037V39.2521ZM225.741 41.1265L225.67 41.4053L225.373 41.5377H225.153V41.3356L225.231 41.0569L225.373 40.9872L225.741 41.1265ZM226.399 64.1219C226.399 64.1707 226.258 64.2125 226.038 64.2613L225.812 64.1916L225.741 63.9825L225.96 63.7735L226.328 63.8432L226.399 64.1219Z" fill="#00FFFF"/>
<path d="M263 63.8574L262.781 63.9968H262.229L261.641 63.7181L260.87 63.3L258.923 61.9481L257.571 60.8053L256.156 59.1051L255.059 57.7114L254.138 56.2202L253.006 55.0774L251.428 53.2377L249.623 51.6141L247.973 50.2205L246.692 48.6596L244.817 46.5691L243.458 44.6598L242.042 42.9595L240.683 41.4056L239.062 40.0956L237.342 39.1618H235.686L235.615 40.1653L235.098 41.7958L234.66 44.3602L234.589 45.921L234.185 47.2729L233.669 50.8825L233.52 52.973V54.2551L233.301 57.1679V57.8647L233.669 58.4222L234.256 59.0772L234.589 59.9831L234.405 60.4987L234.037 60.9865L233.378 61.2652L232.671 61.1259L232.161 60.7078L231.793 60.1573L230.873 58.7636L230.724 57.0285V54.938L230.873 51.6141L231.241 50.2623L231.425 49.3913V47.691L231.644 46.6876L231.864 45.6493L231.942 44.4995L232.303 43.0083L232.451 41.3847L232.819 39.6148L232.925 37.7403L233.293 36.5626L233.371 35.2108V33.5802L233.591 31.9148L233.661 30.1448L234.369 26.4726L234.624 25.1207V23.7689L234.702 21.8596L235.212 20.5774L235.65 19.3649L235.36 18.1455L235.65 16.8633L235.063 15.5114L235.282 14.4035L235.87 13.4001L237.448 13.2607L239.027 12.2573L240.534 12.0482L242.658 11.9785L244.894 12.0482L247.393 12.2573L248.603 12.7381L249.63 13.1213L250.691 13.8809L251.902 14.9609L252.61 16.2431L253.381 17.595L254.039 19.3649V20.5077L254.705 21.8596L254.627 23.4205L254.811 24.18L254.627 25.7409L254.337 27.0927L254.117 28.6536L254.039 30.0473L253.749 31.2598L253.041 32.751L252.015 33.9704L250.953 34.6673L249.814 35.5383L248.71 36.0888L247.648 36.7856V38.0051L248.016 39.0433L248.455 40.1165L248.71 41.1269L249.743 43.517L251.321 46.0116L252.029 47.1614L252.687 48.5551L253.756 50.3877L254.344 51.5375L255.335 52.8893L255.844 54.3806L256.467 55.7324L257.423 57.1261L258.194 58.3037L259.369 59.6556L260.785 60.9377L261.776 61.9412L262.483 62.847L262.816 63.293L263 63.8574ZM248.065 24.1382L247.549 22.647L247.917 21.1558L247.549 20.5356V17.9016L246.784 16.8215L245.305 16.4034L244.066 15.9156L243.443 16.1943L242.934 16.1247L240.591 16.8842L240.152 17.5462L239.862 18.3754L239.572 19.5252L239.274 21.0094V22.2986L238.432 25.9708L237.724 27.7756L237.25 29.2668L237.101 30.9671L237.25 31.7963L237.101 32.9391L237.873 33.5314L238.97 33.8102L239.954 33.2875L241.745 32.8695L244.088 32.4583L245.333 31.657L246.685 30.6187L247.159 29.5456L246.905 28.8836L247.159 28.1868V26.9255L247.23 25.713L248.065 24.1382ZM238.56 44.8758L238.482 45.3984L237.894 45.2242L237.823 44.8758L238.411 44.388L238.56 44.8758ZM247.428 22.1801L246.806 22.5215L246.437 22.0407L246.806 21.4484L247.428 21.6923V22.1801Z" fill="#00FFFF"/>
<g filter="url(#filter0_d)">
<path d="M89.3251 57.0147C86.4824 57.0231 83.6661 56.4776 81.0385 55.4096C78.4109 54.3416 76.024 52.7723 74.0152 50.792L73.1729 49.9628C72.9076 49.7015 72.697 49.3914 72.5534 49.05C72.4098 48.7087 72.3359 48.3428 72.3359 47.9733C72.3359 47.6039 72.4098 47.238 72.5534 46.8967C72.697 46.5553 72.9076 46.2452 73.1729 45.9839C73.4383 45.7226 73.7533 45.5154 74.1001 45.374C74.4468 45.2326 74.8184 45.1598 75.1937 45.1598C75.569 45.1598 75.9407 45.2326 76.2874 45.374C76.6341 45.5154 76.9492 45.7226 77.2145 45.9839L78.0568 46.8131C80.28 49.0022 83.1126 50.4932 86.1965 51.0973C89.2804 51.7014 92.477 51.3917 95.382 50.2072C98.2871 49.0227 100.77 47.0167 102.517 44.4429C104.264 41.8691 105.196 38.843 105.196 35.7475C105.196 32.6519 104.264 29.6259 102.517 27.052C100.77 24.4782 98.2871 22.4722 95.382 21.2877C92.477 20.1033 89.2804 19.7935 86.1965 20.3977C83.1126 21.0018 80.28 22.4927 78.0568 24.6818L58.9035 43.5798C58.6382 43.8411 58.3231 44.0483 57.9763 44.1897C57.6296 44.3311 57.258 44.4039 56.8827 44.4039C56.5074 44.4039 56.1358 44.3311 55.7891 44.1897C55.4423 44.0483 55.1273 43.8411 54.8619 43.5798C54.5966 43.3186 54.386 43.0084 54.2424 42.6671C54.0988 42.3257 54.0249 41.9598 54.0249 41.5904C54.0249 41.2209 54.0988 40.855 54.2424 40.5137C54.386 40.1723 54.5966 39.8622 54.8619 39.6009L74.0152 20.7029C76.5275 18.2278 79.6211 16.4009 83.0219 15.3842C86.4228 14.3675 90.0259 14.1923 93.512 14.8741C96.998 15.556 100.259 17.0738 103.007 19.2932C105.755 21.5126 107.904 24.3649 109.265 27.5975C110.625 30.8301 111.155 34.3432 110.806 37.8254C110.458 41.3076 109.243 44.6515 107.268 47.5608C105.293 50.47 102.62 52.8548 99.4852 54.5039C96.3505 56.153 92.851 57.0154 89.2968 57.0147H89.3251Z" fill="#0099FF"/>
</g>
<g filter="url(#filter1_d)">
<path d="M49.0023 57.0147C45.4481 57.0154 41.9486 56.153 38.8139 54.5039C35.6791 52.8548 33.0059 50.47 31.0312 47.5608C29.0564 44.6515 27.841 41.3076 27.4927 37.8254C27.1444 34.3432 27.6739 30.8301 29.0343 27.5975C30.3948 24.3649 32.5441 21.5126 35.2918 19.2932C38.0396 17.0738 41.3011 15.556 44.7871 14.8741C48.2732 14.1923 51.8763 14.3675 55.2772 15.3842C58.678 16.4009 61.7716 18.2278 64.2839 20.7029L64.9917 21.3998C65.5276 21.9283 65.8283 22.6448 65.8277 23.3917C65.827 24.1385 65.525 24.8545 64.9881 25.3821C64.4512 25.9098 63.7235 26.2058 62.9649 26.2052C62.2062 26.2045 61.479 25.9072 60.943 25.3787L60.2352 24.6818C58.0121 22.4927 55.1794 21.0018 52.0955 20.3977C49.0116 19.7935 45.815 20.1033 42.91 21.2877C40.0049 22.4722 37.5219 24.4782 35.775 27.052C34.028 29.6259 33.0955 32.6519 33.0955 35.7475C33.0955 38.843 34.028 41.8691 35.775 44.4429C37.5219 47.0167 40.0049 49.0227 42.91 50.2072C45.815 51.3917 49.0116 51.7015 52.0955 51.0973C55.1794 50.4932 58.0121 49.0022 60.2352 46.8131L80.5493 26.8141C81.0852 26.2865 81.8122 25.9901 82.5701 25.9901C82.9454 25.9901 83.317 26.0628 83.6638 26.2042C84.0105 26.3456 84.3255 26.5529 84.5909 26.8141C84.8563 27.0754 85.0668 27.3855 85.2104 27.7269C85.354 28.0682 85.4279 28.4341 85.4279 28.8036C85.4279 29.173 85.354 29.5389 85.2104 29.8803C85.0668 30.2216 84.8563 30.5318 84.5909 30.793L64.2697 50.792C62.266 52.7673 59.8859 54.3337 57.266 55.4016C54.6461 56.4694 51.8378 57.0176 49.0023 57.0147Z" fill="#FFC84D"/>
</g>
<defs>
<filter id="filter0_d" x="48.0249" y="8.46631" width="68.8855" height="54.5485" filterUnits="userSpaceOnUse" color-interpolation-filters="sRGB">
<feFlood flood-opacity="0" result="BackgroundImageFix"/>
<feColorMatrix in="SourceAlpha" type="matrix" values="0 0 0 0 0 0 0 0 0 0 0 0 0 0 0 0 0 0 127 0"/>
<feOffset/>
<feGaussianBlur stdDeviation="3"/>
<feColorMatrix type="matrix" values="0 0 0 0 0.0708333 0 0 0 0 0.83275 0 0 0 0 1 0 0 0 1 0"/>
<feBlend mode="lighten" in2="BackgroundImageFix" result="effect1_dropShadow"/>
<feBlend mode="normal" in="SourceGraphic" in2="effect1_dropShadow" result="shape"/>
</filter>
<filter id="filter1_d" x="21.3887" y="8.46631" width="70.0392" height="54.5484" filterUnits="userSpaceOnUse" color-interpolation-filters="sRGB">
<feFlood flood-opacity="0" result="BackgroundImageFix"/>
<feColorMatrix in="SourceAlpha" type="matrix" values="0 0 0 0 0 0 0 0 0 0 0 0 0 0 0 0 0 0 127 0"/>
<feOffset/>
<feGaussianBlur stdDeviation="3"/>
<feColorMatrix type="matrix" values="0 0 0 0 1 0 0 0 0 0.802833 0 0 0 0 0.620833 0 0 0 1 0"/>
<feBlend mode="lighten" in2="BackgroundImageFix" result="effect1_dropShadow"/>
<feBlend mode="normal" in="SourceGraphic" in2="effect1_dropShadow" result="shape"/>
</filter>
</defs>
</svg>
