<svg width="40" height="40" viewBox="0 0 40 40" fill="none" xmlns="http://www.w3.org/2000/svg">
<path d="M19.9609 0C8.95423 0 0 9.01488 0 20.0001C0 23.2708 0.808377 26.5003 2.34028 29.3671L0.725794 37.8266C0.653543 38.2077 0.773935 38.6002 1.04916 38.8749C1.32439 39.1496 1.71766 39.2674 2.0995 39.1977L10.5755 37.5863C13.4479 39.1152 16.6837 40 19.9608 40C30.9675 40 40 30.9854 40 20.0002C40 9.01496 30.9676 0 19.9609 0V0Z" fill="url(#paint0_linear)"/>
<path d="M32.3037 25.6753C32.1202 24.5458 31.4277 23.605 30.4026 23.0935L26.6736 21.2327C26.2207 21.005 25.6738 21.0931 25.3183 21.4525L23.9148 22.8543C23.322 22.8955 21.6857 22.7982 19.507 20.6239C17.3272 18.4495 17.2229 16.8106 17.2722 16.2247L18.6768 14.8239C19.0346 14.468 19.1229 13.9221 18.897 13.4713L17.0326 9.7496C16.52 8.72764 15.5787 8.0353 14.448 7.85217C13.3094 7.67365 12.2017 8.02725 11.391 8.83639L9.3316 10.8918C8.64933 11.5727 8.28244 12.4837 8.29731 13.4598C8.33629 15.7086 9.19625 20.2771 14.5248 25.5964C19.3591 30.4212 24.1211 31.4947 26.5314 31.7052C27.5637 31.7958 28.5988 31.4376 29.3487 30.6879L31.3175 28.7241C32.1283 27.9149 32.4872 26.8037 32.3037 25.6753Z" fill="white"/>
<defs>
<linearGradient id="paint0_linear" x1="20" y1="0" x2="20" y2="40" gradientUnits="userSpaceOnUse">
<stop stop-color="#B0FFC6"/>
<stop offset="1" stop-color="#00B4FF"/>
</linearGradient>
</defs>
</svg>
