<svg width="240" height="240" viewBox="0 0 240 240" fill="none" xmlns="http://www.w3.org/2000/svg">
<g filter="url(#filter0_dii)">
<circle cx="120" cy="116" r="40" fill="#0069AE"/>
<circle cx="120" cy="116" r="40" fill="url(#paint0_radial)"/>
</g>
<path d="M111.721 101.4C111.817 101.345 111.927 101.319 112.037 101.324C112.148 101.329 112.255 101.365 112.346 101.428L121.434 107.436C121.586 107.546 121.759 107.624 121.941 107.666C122.124 107.707 122.314 107.711 122.498 107.678C122.683 107.644 122.859 107.573 123.015 107.47C123.171 107.367 123.305 107.233 123.409 107.076C123.512 106.919 123.582 106.744 123.616 106.559C123.649 106.374 123.645 106.185 123.603 106.002C123.562 105.819 123.483 105.647 123.373 105.495C123.263 105.343 123.123 105.216 122.962 105.119L113.877 99.111C113.366 98.7739 112.774 98.5814 112.163 98.5537C111.552 98.5261 110.944 98.6645 110.406 98.9542C109.867 99.2439 109.416 99.6741 109.102 100.199C108.788 100.724 108.622 101.324 108.622 101.936V130.064C108.622 130.676 108.788 131.276 109.102 131.801C109.415 132.327 109.866 132.757 110.405 133.047C110.944 133.337 111.551 133.475 112.163 133.447C112.774 133.419 113.366 133.226 113.877 132.889L135.152 118.825C135.619 118.516 136.002 118.097 136.267 117.604C136.532 117.111 136.671 116.56 136.671 116C136.671 115.44 136.532 114.889 136.267 114.396C136.002 113.903 135.619 113.483 135.152 113.175L127.714 108.258C127.562 108.148 127.389 108.07 127.206 108.028C127.023 107.987 126.834 107.983 126.649 108.016C126.465 108.05 126.289 108.121 126.133 108.224C125.976 108.328 125.842 108.462 125.739 108.618C125.636 108.775 125.565 108.951 125.532 109.135C125.498 109.32 125.503 109.509 125.544 109.692C125.586 109.875 125.665 110.047 125.775 110.199C125.885 110.351 126.025 110.479 126.186 110.575L133.622 115.492C133.706 115.547 133.775 115.623 133.823 115.711C133.87 115.8 133.895 115.899 133.895 116C133.895 116.101 133.87 116.2 133.823 116.288C133.775 116.377 133.706 116.453 133.622 116.508L112.346 130.572C112.254 130.633 112.147 130.667 112.037 130.672C111.927 130.677 111.818 130.652 111.721 130.6C111.624 130.548 111.543 130.471 111.487 130.376C111.43 130.282 111.4 130.174 111.4 130.064V101.936C111.398 101.826 111.427 101.717 111.483 101.622C111.54 101.527 111.622 101.45 111.721 101.4V101.4Z" fill="white"/>
<path d="M120.003 82.6667C111.161 82.6667 102.682 86.1786 96.4308 92.4298C90.1791 98.681 86.667 107.159 86.667 116C86.667 124.84 90.1791 133.319 96.4308 139.57C102.682 145.821 111.161 149.333 120.003 149.333C127.546 149.361 134.871 146.804 140.757 142.086C141.023 141.85 141.189 141.522 141.22 141.167C141.251 140.813 141.145 140.461 140.924 140.182C140.703 139.904 140.383 139.721 140.031 139.671C139.679 139.621 139.321 139.708 139.032 139.914C133.635 144.239 126.919 146.584 120.003 146.555C113.031 146.555 106.269 144.171 100.839 139.8C95.4094 135.428 91.6375 129.331 90.1498 122.521C88.662 115.71 89.5478 108.596 92.6602 102.359C95.7725 96.121 100.924 91.135 107.261 88.2281C113.597 85.3211 120.737 84.668 127.495 86.3771C134.254 88.0862 140.225 92.0547 144.418 97.6241C148.61 103.193 150.772 110.029 150.545 116.996C150.318 123.963 147.715 130.643 143.168 135.928C143.038 136.064 142.936 136.226 142.87 136.402C142.804 136.579 142.775 136.768 142.785 136.956C142.794 137.145 142.842 137.329 142.925 137.499C143.008 137.668 143.124 137.819 143.268 137.942C143.411 138.065 143.578 138.157 143.758 138.213C143.938 138.27 144.128 138.289 144.316 138.269C144.503 138.249 144.685 138.192 144.85 138.1C145.015 138.008 145.159 137.883 145.274 137.733C149.433 132.897 152.117 126.968 153.007 120.651C153.898 114.335 152.957 107.895 150.296 102.098C147.635 96.2999 143.367 91.3873 137.997 87.9431C132.627 84.4989 126.382 82.6676 120.003 82.6667V82.6667Z" fill="url(#paint1_linear)"/>
<defs>
<filter id="filter0_dii" x="0" y="0" width="240" height="240" filterUnits="userSpaceOnUse" color-interpolation-filters="sRGB">
<feFlood flood-opacity="0" result="BackgroundImageFix"/>
<feColorMatrix in="SourceAlpha" type="matrix" values="0 0 0 0 0 0 0 0 0 0 0 0 0 0 0 0 0 0 127 0"/>
<feOffset dy="4"/>
<feGaussianBlur stdDeviation="40"/>
<feColorMatrix type="matrix" values="0 0 0 0 0 0 0 0 0 0.537255 0 0 0 0 0.890196 0 0 0 1 0"/>
<feBlend mode="normal" in2="BackgroundImageFix" result="effect1_dropShadow"/>
<feBlend mode="normal" in="SourceGraphic" in2="effect1_dropShadow" result="shape"/>
<feColorMatrix in="SourceAlpha" type="matrix" values="0 0 0 0 0 0 0 0 0 0 0 0 0 0 0 0 0 0 127 0" result="hardAlpha"/>
<feOffset dx="10" dy="16"/>
<feGaussianBlur stdDeviation="10"/>
<feComposite in2="hardAlpha" operator="arithmetic" k2="-1" k3="1"/>
<feColorMatrix type="matrix" values="0 0 0 0 0.164706 0 0 0 0 0.964706 0 0 0 0 1 0 0 0 0.95 0"/>
<feBlend mode="normal" in2="shape" result="effect2_innerShadow"/>
<feColorMatrix in="SourceAlpha" type="matrix" values="0 0 0 0 0 0 0 0 0 0 0 0 0 0 0 0 0 0 127 0" result="hardAlpha"/>
<feOffset dy="2"/>
<feGaussianBlur stdDeviation="5"/>
<feComposite in2="hardAlpha" operator="arithmetic" k2="-1" k3="1"/>
<feColorMatrix type="matrix" values="0 0 0 0 1 0 0 0 0 1 0 0 0 0 1 0 0 0 0.58 0"/>
<feBlend mode="normal" in2="effect2_innerShadow" result="effect3_innerShadow"/>
</filter>
<radialGradient id="paint0_radial" cx="0" cy="0" r="1" gradientUnits="userSpaceOnUse" gradientTransform="translate(136.32 100.96) rotate(110.973) scale(82.2493)">
<stop stop-color="#0089E3"/>
<stop offset="1" stop-color="#000210" stop-opacity="0"/>
</radialGradient>
<linearGradient id="paint1_linear" x1="120" y1="82.6667" x2="120" y2="149.333" gradientUnits="userSpaceOnUse">
<stop stop-color="#B0FFC6"/>
<stop offset="1" stop-color="#00B4FF"/>
</linearGradient>
</defs>
</svg>
