<svg width="260" height="260" viewBox="0 0 260 260" fill="none" xmlns="http://www.w3.org/2000/svg">
<g filter="url(#filter0_dii)">
<circle cx="130" cy="126" r="50" fill="#0069AE"/>
<circle cx="130" cy="126" r="50" fill="url(#paint0_radial)"/>
</g>
<path d="M119.652 107.75C119.772 107.682 119.909 107.649 120.047 107.655C120.186 107.661 120.319 107.706 120.433 107.784L131.793 115.295C131.983 115.432 132.199 115.53 132.427 115.582C132.656 115.634 132.893 115.639 133.124 115.597C133.354 115.555 133.574 115.467 133.77 115.337C133.965 115.208 134.132 115.041 134.262 114.845C134.391 114.649 134.479 114.429 134.521 114.199C134.562 113.968 134.557 113.731 134.505 113.503C134.453 113.274 134.355 113.059 134.217 112.869C134.079 112.679 133.904 112.519 133.703 112.399L122.346 104.889C121.708 104.467 120.968 104.227 120.204 104.192C119.44 104.158 118.681 104.331 118.008 104.693C117.334 105.055 116.771 105.592 116.379 106.249C115.986 106.905 115.779 107.655 115.778 108.42V143.579C115.778 144.344 115.985 145.095 116.378 145.752C116.77 146.408 117.333 146.946 118.007 147.308C118.68 147.671 119.44 147.844 120.204 147.809C120.968 147.774 121.708 147.533 122.346 147.111L148.94 129.531C149.524 129.145 150.003 128.621 150.335 128.004C150.666 127.388 150.839 126.699 150.839 126C150.839 125.3 150.666 124.611 150.335 123.995C150.003 123.379 149.524 122.854 148.94 122.468L139.643 116.323C139.453 116.185 139.237 116.087 139.009 116.035C138.78 115.983 138.543 115.978 138.313 116.02C138.082 116.062 137.862 116.151 137.667 116.28C137.471 116.409 137.304 116.577 137.175 116.773C137.045 116.968 136.957 117.188 136.916 117.419C136.874 117.649 136.879 117.886 136.931 118.115C136.983 118.343 137.081 118.559 137.219 118.749C137.357 118.938 137.532 119.098 137.733 119.218L147.029 125.364C147.134 125.434 147.22 125.528 147.279 125.639C147.339 125.75 147.37 125.874 147.37 126C147.37 126.126 147.339 126.249 147.279 126.36C147.22 126.471 147.134 126.566 147.029 126.635L120.433 144.215C120.318 144.291 120.185 144.334 120.048 144.34C119.91 144.347 119.773 144.315 119.652 144.25C119.531 144.185 119.43 144.088 119.359 143.97C119.288 143.852 119.251 143.717 119.251 143.579V108.42C119.248 108.282 119.284 108.146 119.355 108.027C119.426 107.909 119.529 107.812 119.652 107.75Z" fill="white"/>
<path d="M130.003 84.3333C118.952 84.3333 108.353 88.7231 100.539 96.5371C92.7241 104.351 88.334 114.949 88.334 126C88.334 137.05 92.7241 147.648 100.539 155.462C108.353 163.276 118.952 167.666 130.003 167.666C139.433 167.702 148.589 164.504 155.946 158.607C156.279 158.313 156.486 157.902 156.525 157.459C156.564 157.016 156.432 156.576 156.155 156.227C155.879 155.879 155.479 155.651 155.039 155.588C154.599 155.526 154.152 155.635 153.79 155.892C147.044 161.299 138.649 164.23 130.003 164.194C121.289 164.194 112.837 161.214 106.05 155.749C99.262 150.285 94.5472 142.664 92.6875 134.151C90.8278 125.638 91.935 116.745 95.8254 108.948C99.7159 101.151 106.156 94.9186 114.076 91.2849C121.996 87.6512 130.921 86.8348 139.369 88.9712C147.818 91.1075 155.281 96.0682 160.522 103.03C165.763 109.992 168.465 118.536 168.181 127.245C167.897 135.954 164.644 144.304 158.96 150.909C158.797 151.08 158.671 151.282 158.588 151.503C158.506 151.724 158.469 151.959 158.481 152.195C158.493 152.431 158.552 152.661 158.656 152.873C158.76 153.085 158.906 153.274 159.085 153.427C159.264 153.581 159.473 153.696 159.698 153.767C159.923 153.837 160.16 153.86 160.395 153.836C160.629 153.812 160.857 153.74 161.063 153.625C161.268 153.509 161.449 153.353 161.592 153.166C166.792 147.12 170.147 139.71 171.26 131.814C172.372 123.918 171.196 115.869 167.87 108.622C164.544 101.375 159.209 95.234 152.496 90.9287C145.784 86.6234 137.978 84.3343 130.003 84.3333Z" fill="url(#paint1_linear)"/>
<defs>
<filter id="filter0_dii" x="0" y="0" width="260" height="260" filterUnits="userSpaceOnUse" color-interpolation-filters="sRGB">
<feFlood flood-opacity="0" result="BackgroundImageFix"/>
<feColorMatrix in="SourceAlpha" type="matrix" values="0 0 0 0 0 0 0 0 0 0 0 0 0 0 0 0 0 0 127 0"/>
<feOffset dy="4"/>
<feGaussianBlur stdDeviation="40"/>
<feColorMatrix type="matrix" values="0 0 0 0 0 0 0 0 0 0.537255 0 0 0 0 0.890196 0 0 0 1 0"/>
<feBlend mode="normal" in2="BackgroundImageFix" result="effect1_dropShadow"/>
<feBlend mode="normal" in="SourceGraphic" in2="effect1_dropShadow" result="shape"/>
<feColorMatrix in="SourceAlpha" type="matrix" values="0 0 0 0 0 0 0 0 0 0 0 0 0 0 0 0 0 0 127 0" result="hardAlpha"/>
<feOffset dx="10" dy="16"/>
<feGaussianBlur stdDeviation="10"/>
<feComposite in2="hardAlpha" operator="arithmetic" k2="-1" k3="1"/>
<feColorMatrix type="matrix" values="0 0 0 0 0.164706 0 0 0 0 0.964706 0 0 0 0 1 0 0 0 0.95 0"/>
<feBlend mode="normal" in2="shape" result="effect2_innerShadow"/>
<feColorMatrix in="SourceAlpha" type="matrix" values="0 0 0 0 0 0 0 0 0 0 0 0 0 0 0 0 0 0 127 0" result="hardAlpha"/>
<feOffset dy="2"/>
<feGaussianBlur stdDeviation="5"/>
<feComposite in2="hardAlpha" operator="arithmetic" k2="-1" k3="1"/>
<feColorMatrix type="matrix" values="0 0 0 0 1 0 0 0 0 1 0 0 0 0 1 0 0 0 0.58 0"/>
<feBlend mode="normal" in2="effect2_innerShadow" result="effect3_innerShadow"/>
</filter>
<radialGradient id="paint0_radial" cx="0" cy="0" r="1" gradientUnits="userSpaceOnUse" gradientTransform="translate(150.4 107.2) rotate(110.973) scale(102.812)">
<stop stop-color="#0089E3"/>
<stop offset="1" stop-color="#000210" stop-opacity="0"/>
</radialGradient>
<linearGradient id="paint1_linear" x1="130.001" y1="84.3333" x2="130.001" y2="167.667" gradientUnits="userSpaceOnUse">
<stop stop-color="#B0FFC6"/>
<stop offset="1" stop-color="#00B4FF"/>
</linearGradient>
</defs>
</svg>
