<svg width="97" height="83" viewBox="0 0 97 83" fill="none" xmlns="http://www.w3.org/2000/svg">
<path d="M54.4561 72.8367C51.641 72.8367 49.3508 75.1163 49.3508 77.9184C49.3508 80.7205 51.641 83 54.4561 83C57.2712 83 59.5613 80.7205 59.5613 77.9184C59.5613 75.1163 57.2712 72.8367 54.4561 72.8367ZM10.2105 22.0204C10.2105 19.2183 7.92038 16.9388 5.10526 16.9388C2.29013 16.9388 0 19.2183 0 22.0204C0 24.8225 2.29013 27.102 5.10526 27.102C7.92038 27.102 10.2105 24.8225 10.2105 22.0204ZM22.1228 1.69388C22.1228 0.758434 22.8847 0 23.8245 0C24.7643 0 25.5263 0.758434 25.5263 1.69388C25.5263 2.62932 24.7643 3.38775 23.8245 3.38775C22.8847 3.38775 22.1228 2.62932 22.1228 1.69388ZM44.2456 74.5306C44.2456 75.4661 43.4836 76.2245 42.5438 76.2245C41.604 76.2245 40.8421 75.4661 40.8421 74.5306C40.8421 73.5952 41.604 72.8367 42.5438 72.8367C43.4836 72.8367 44.2456 73.5952 44.2456 74.5306ZM96.5013 42.8432L70.975 17.4351C70.4879 16.9502 69.757 16.805 69.1205 17.0679C68.484 17.3292 68.0701 17.9479 68.0701 18.6327V30.4898H62.9648C62.4147 30.4898 61.8995 30.7545 61.5805 31.1995L44.5621 54.9138C44.1924 55.43 44.1426 56.108 44.434 56.6738C44.7259 57.2378 45.31 57.5918 45.9473 57.5918H68.0701V69.449C68.0701 70.1337 68.484 70.7524 69.1205 71.0137C69.3315 71.1014 69.5527 71.1429 69.7719 71.1429C70.2139 71.1429 70.6491 70.9709 70.975 70.6465L96.5013 45.2384C97.1662 44.5769 97.1662 43.5047 96.5013 42.8432ZM71.4736 65.36V55.898C71.4736 54.9617 70.7125 54.2041 69.7719 54.2041H49.2542L63.8404 33.8776H69.7719C70.7125 33.8776 71.4736 33.12 71.4736 32.1837V22.7217L92.8919 44.0408L71.4736 65.36ZM57.5422 33.1678L40.5255 56.8821C40.1933 57.3454 39.6696 57.5918 39.1386 57.5918C38.7961 57.5918 38.4507 57.4894 38.1516 57.2759C37.3862 56.7335 37.2092 55.6748 37.7551 54.9138L54.7735 31.1995C55.3218 30.4403 56.382 30.2632 57.1466 30.8057C57.9111 31.3482 58.0889 32.4068 57.5422 33.1678ZM50.7352 33.1678L33.7185 56.8821C33.3863 57.3454 32.8625 57.5918 32.3316 57.5918C31.9891 57.5918 31.6437 57.4894 31.3446 57.2759C30.5792 56.7335 30.4022 55.6748 30.9481 54.9138L47.9664 31.1995C48.5131 30.4403 49.5767 30.2632 50.3395 30.8057C51.1041 31.3482 51.2819 32.4068 50.7352 33.1678ZM43.929 33.1678L26.9115 56.8821C26.5792 57.3454 26.0555 57.5918 25.5246 57.5918C25.1821 57.5918 24.8367 57.4894 24.5376 57.2759C23.7722 56.7335 23.5952 55.6748 24.1411 54.9138L41.1586 31.1995C41.7053 30.4369 42.7689 30.2599 43.5325 30.8057C44.2979 31.3482 44.4749 32.4068 43.929 33.1678ZM37.122 33.1678L20.1045 56.8821C19.7722 57.3454 19.2485 57.5918 18.7176 57.5918C18.3751 57.5918 18.0296 57.4894 17.7306 57.2759C16.9652 56.7335 16.7882 55.6748 17.3341 54.9138L34.3516 31.1995C34.8974 30.4369 35.9602 30.2599 36.7255 30.8057C37.4909 31.3482 37.6679 32.4068 37.122 33.1678ZM30.315 33.1678L13.2975 56.8821C12.9652 57.3454 12.4415 57.5918 11.9106 57.5918C11.5681 57.5918 11.2226 57.4894 10.9235 57.2759C10.1582 56.7335 9.9812 55.6748 10.527 54.9138L27.5446 31.1995C28.0904 30.4369 29.154 30.2599 29.9185 30.8057C30.6839 31.3482 30.8609 32.4068 30.315 33.1678ZM23.508 33.1678L6.49048 56.8821C6.15822 57.3454 5.6345 57.5918 5.10356 57.5918C4.76108 57.5918 4.41562 57.4894 4.11654 57.2759C3.35118 56.7335 3.17419 55.6748 3.72003 54.9138L20.7376 31.1995C21.2842 30.4369 22.3478 30.2599 23.1115 30.8057C23.8769 31.3482 24.0538 32.4068 23.508 33.1678Z" fill="url(#paint0_linear)"/>
<defs>
<linearGradient id="paint0_linear" x1="48.5" y1="0" x2="48.5" y2="83" gradientUnits="userSpaceOnUse">
<stop stop-color="#B0FFC6"/>
<stop offset="1" stop-color="#00B4FF"/>
</linearGradient>
</defs>
</svg>
