<svg width="56" height="40" viewBox="0 0 56 40" fill="none" xmlns="http://www.w3.org/2000/svg">
<path d="M39.8764 9.81132C42.5971 9.81132 44.8027 7.71675 44.8027 5.13296C44.8027 2.54917 42.5971 0.45459 39.8764 0.45459C37.1558 0.45459 34.9502 2.54917 34.9502 5.13296C34.9502 7.71675 37.1558 9.81132 39.8764 9.81132Z" fill="#00FFFF"/>
<path d="M44.8122 5.13282C44.8122 7.71683 42.6064 9.8116 39.8855 9.8116C39.3781 9.8116 38.8881 9.73889 38.4277 9.60386C40.4367 9.01294 41.8956 7.23487 41.8956 5.13282C41.8956 3.03078 40.4367 1.25375 38.4277 0.662821C38.8881 0.527788 39.3781 0.455078 39.8855 0.455078C42.6063 0.455078 44.8122 2.54881 44.8122 5.13282Z" fill="#00FFFF"/>
<path d="M28.0044 37.7291C38.3136 37.7291 46.6709 29.7923 46.6709 20.0019C46.6709 10.2114 38.3136 2.27466 28.0044 2.27466C17.6952 2.27466 9.33789 10.2114 9.33789 20.0019C9.33789 29.7923 17.6952 37.7291 28.0044 37.7291Z" fill="#00FFFF"/>
<path d="M46.4406 22.7749C44.8669 32.2072 35.732 38.7159 25.8338 37.6089C33.9254 36.7001 40.7287 30.7938 42.0662 22.7749C43.6781 13.1048 36.7316 4.02443 26.549 2.49254C26.2986 2.45515 26.0482 2.42191 25.7988 2.3949C27.4644 2.20689 29.1846 2.23078 30.9235 2.49254C41.106 4.02443 48.0526 13.1047 46.4406 22.7749Z" fill="#00FFFF"/>
<path d="M54.9781 5.20039C54.0408 6.77695 52.4661 8.6941 50.2975 10.898C45.8946 15.3732 39.4894 20.5848 32.2607 25.5721C25.032 30.5604 17.8339 34.7354 11.9919 37.3298C9.11463 38.6072 6.70762 39.437 4.83862 39.7964C4.13326 39.9314 3.50665 40 2.9565 40C1.75895 40 0.924528 39.677 0.426981 39.0268C-0.464315 37.8616 0.0365126 36.0191 1.9602 33.3956C3.59295 31.1669 6.257 28.3867 9.66457 25.355C9.79801 25.2366 9.96317 25.168 10.1326 25.1503C10.289 25.6405 10.4684 26.1235 10.6695 26.596C7.40073 29.5134 4.8559 32.1701 3.30628 34.2856C1.22082 37.1313 1.64728 37.9715 1.75337 38.1107C1.9754 38.4015 2.81748 38.5947 4.51367 38.2696C6.23064 37.9393 8.5764 37.1261 11.2973 35.9183C17.0475 33.3654 24.1493 29.2434 31.296 24.3122C38.4427 19.381 44.7658 14.2391 49.0987 9.83451C51.1492 7.75116 52.6891 5.88376 53.5496 4.43392C54.4005 3.00278 54.4661 2.18334 54.2441 1.8925C53.8209 1.34105 51.4007 1.152 45.0118 3.9478C44.8981 3.99766 44.7799 4.02051 44.6629 4.01947C44.5415 3.54592 44.3446 3.10031 44.0833 2.69532C44.1512 2.62884 44.2332 2.57379 44.3262 2.53328C50.5947 -0.210586 54.2725 -0.719556 55.5706 0.977495C56.2969 1.92584 56.1034 3.30712 54.9781 5.20039Z" fill="#00FFFF"/>
<path d="M9.32167 39.8533C10.8358 39.8533 12.0633 38.6876 12.0633 37.2496C12.0633 35.8117 10.8358 34.646 9.32167 34.646C7.80753 34.646 6.58008 35.8117 6.58008 37.2496C6.58008 38.6876 7.80753 39.8533 9.32167 39.8533Z" fill="#00FFFF"/>
<path d="M12.074 37.2498C12.074 38.6878 10.8471 39.853 9.33291 39.853C8.88469 39.853 8.4613 39.7504 8.08691 39.5692C8.97427 39.1379 9.58196 38.2613 9.58196 37.2498C9.58196 36.2384 8.97427 35.3609 8.08691 34.9298C8.4613 34.7484 8.88469 34.646 9.33291 34.646C10.8471 34.6459 12.074 35.8118 12.074 37.2498Z" fill="#00FFFF"/>
</svg>
