<svg width="171" height="137" viewBox="0 0 171 137" fill="none" xmlns="http://www.w3.org/2000/svg">
<path d="M30.1056 23.3368L30.071 35.9365L27.4209 34.3555L27.4555 21.7559L30.1056 23.3368Z" fill="#D7D7D7"/>
<path d="M30.1077 23.3486L30.0703 35.9464C54.3921 21.3296 85.0736 14.0089 111.457 14.9089V2.31143C85.0818 1.4188 54.4177 8.73954 30.1077 23.3486Z" fill="#B0AFB0"/>
<path d="M27.457 21.7562L30.1075 23.3372C54.4204 8.73732 85.0873 1.41105 111.458 2.29964V0.0678619C84.0731 -0.803795 52.4678 6.73781 27.457 21.7562Z" fill="#D7D7D7"/>
<path d="M148.816 52.11C147.038 46.9533 142.665 43.219 137.596 41.628C107.476 32.1745 83.1273 19.8506 71.7331 1.08751C69.5639 -0.187956 67.5821 -0.305011 66.161 0.546033L47.8057 11.5629C49.2289 10.7214 51.5594 10.3422 53.3528 12.1157C68.84 27.4397 89.5027 42.912 119.286 52.6515C124.316 54.2965 128.666 58.0047 130.436 63.1401C130.991 64.7483 131.3 66.383 131.288 67.9128L131.213 104.003C131.176 106.554 130.316 108.331 128.895 109.182L83.6453 136.346C83.5936 136.381 83.5555 136.436 83.5021 136.468L147.275 98.1518C148.696 97.3026 149.556 95.5235 149.594 92.9744L149.668 56.8824C149.679 55.3526 149.371 53.7182 148.816 52.11Z" fill="#071846"/>
<path d="M131.295 67.9205L131.22 104.01C131.183 106.561 130.323 108.338 128.902 109.188L85.9326 134.961C85.8578 134.885 85.783 134.846 85.783 134.768L90.8318 131.716C92.2528 130.866 93.1128 129.089 93.1502 126.538L93.1876 99.7993L93.2247 95.4712C93.2247 95.4712 93.2247 95.4712 93.2247 95.4315V90.4485C93.2247 89.0185 92.9628 87.4714 92.4395 85.9655C92.4395 85.8882 92.4021 85.7711 92.3647 85.6938C90.6073 80.5544 86.2689 76.8447 81.2205 75.1846C51.4524 65.4469 30.7722 49.9905 15.2897 34.6492C14.0182 33.3738 12.4475 33.2585 11.1387 33.5681L47.7877 11.5816C49.2462 10.7306 51.565 10.3441 53.3598 12.1212C68.8423 27.4227 89.4851 42.9189 119.291 52.6566C120.375 53.0037 121.422 53.4679 122.432 54.0094C126.059 55.9415 129.051 59.1094 130.435 63.1283C130.996 64.7505 131.295 66.3734 131.295 67.9205Z" fill="#E8E8E8"/>
<path d="M93.1486 126.552L93.2234 90.4618C93.2348 88.932 92.9263 87.2973 92.3716 85.689C90.6011 80.5537 86.2509 76.8455 81.221 75.2004C51.4383 65.4605 30.7752 49.9883 15.2884 34.6643C14.0016 33.3926 12.4463 33.2494 11.1403 33.57L2.38867 38.8227C3.80975 37.9735 5.79155 38.0888 7.96075 39.4021L78.08 81.2505C82.418 83.8014 85.8961 90.0617 85.8961 95.1992L85.7839 131.252C85.7839 133.082 85.3311 134.52 84.5509 135.502L90.8305 131.731C92.2512 130.88 93.1112 129.103 93.1486 126.552Z" fill="#071846"/>
<path d="M78.0818 81.235C82.4034 83.8132 85.9018 90.0734 85.8879 95.2044L85.7889 131.265C85.7746 136.396 82.2535 138.47 77.9318 135.891C53.0896 123.654 29.7183 109.707 7.80615 94.0581C3.4845 91.4803 -0.0138524 85.2175 4.1241e-05 80.0869L0.0990781 44.0265C0.113328 38.8956 3.63449 36.8232 7.95613 39.4014L78.0818 81.235Z" fill="#686868"/>
<path d="M83.6519 95.1992L83.5401 131.252C83.5401 132.527 83.2782 134.691 81.4457 134.691C80.7727 134.691 79.9124 134.381 79.0521 133.88C54.819 121.94 31.7452 108.222 10.3916 93.0745C9.94277 92.765 9.5313 92.4558 9.08278 92.1462C5.34325 89.9067 2.23926 84.418 2.23926 80.0917L2.35112 44.0398C2.35112 42.7643 2.61296 40.6003 4.4455 40.6003C5.11846 40.6003 5.97879 40.9099 6.83913 41.4116L70.04 79.1262L76.9584 83.2599C80.5483 85.3842 83.6519 90.9503 83.6519 95.1992Z" fill="#071846"/>
<path d="M134.877 85.8385L134.843 98.4381L132.192 96.8568L132.227 84.2575L134.877 85.8385Z" fill="#E8E8E8"/>
<path d="M171 38.2901L170.966 50.8897C170.923 66.6017 158.441 84.2682 134.843 98.4381L134.877 85.8389C158.476 71.6685 170.957 54.0016 171 38.2901Z" fill="#B0AFB0"/>
<path d="M111.457 2.3114V14.9092C126.574 15.426 140.292 18.6167 150.563 24.7393C159.546 30.0749 164.776 37.0466 166.548 44.7841C172.816 16.2844 140.786 3.30232 111.457 2.3114Z" fill="#B0AFB0"/>
<path d="M153.22 10.5451C142.241 3.99622 127.577 0.57916 111.456 0.0678711V2.30002C136.07 3.12566 167.316 12.7787 167.316 38.3034L167.279 50.7845C167.279 48.7393 166.995 46.745 166.547 44.7845C163.604 58.1652 151.891 72.45 132.226 84.2575L134.877 85.8385C174.611 61.9802 182.828 28.2072 153.22 10.5451Z" fill="#D7D7D7"/>
<path d="M167.316 38.3034C167.316 36.115 167.468 40.5948 166.547 44.7845C166.995 46.745 167.279 48.7389 167.279 50.7845L167.316 38.3034Z" fill="#E8E8E8"/>
<path d="M138.793 89.091C138.793 89.9067 139.074 90.4809 139.523 90.7526L140.913 91.5874C140.464 91.3158 140.183 90.7412 140.183 89.9258C140.177 88.2793 141.298 86.2725 142.684 85.4476C143.381 85.0323 144.011 84.9926 144.469 85.2676L143.079 84.4327C142.621 84.1577 141.991 84.1975 141.294 84.6131C139.907 85.438 138.787 87.4445 138.793 89.091Z" fill="#686868"/>
<path d="M142.685 85.4471C141.299 86.2735 140.178 88.2782 140.183 89.9254C140.187 91.5704 141.316 92.2326 142.701 91.4063C144.087 90.5799 145.206 88.5763 145.201 86.9317C145.197 85.284 144.07 84.6207 142.685 85.4471Z" fill="#071846"/>
<path d="M131.297 67.9205L131.222 104.01C131.185 106.561 130.325 108.338 128.904 109.188L85.9348 134.961C85.86 134.885 85.7852 134.846 85.7852 134.768L90.8339 131.716C92.255 130.866 93.115 129.089 93.1524 126.538L93.1898 99.7993C93.5261 98.4068 93.4142 96.9767 93.2268 95.4712C93.2268 95.4712 93.2268 95.4712 93.2268 95.4314V90.4485C93.2268 89.0184 92.965 87.4713 92.4417 85.9654C92.5539 85.5392 92.7035 85.1144 92.9279 84.7279C93.9375 82.7582 95.8449 81.56 97.6397 80.3243C107.512 73.5226 114.73 63.3999 122.434 54.0097C126.061 55.9419 129.053 59.1097 130.437 63.1286C130.998 64.7505 131.297 66.3734 131.297 67.9205Z" fill="#D7D7D7"/>
<path d="M83.6519 95.1993L83.54 131.252C83.54 132.527 83.2782 134.691 81.4457 134.691C80.7727 134.691 79.9124 134.382 79.052 133.88C54.819 121.941 31.7451 108.222 10.3916 93.0746C15.3167 91.7458 21.5155 97.7513 26.6219 95.1614C28.1926 94.3877 29.3522 92.8821 30.9599 92.1463C36.1209 89.7518 42.2911 96.3971 47.4143 93.848C49.2095 92.9197 50.4061 90.9875 52.2387 90.1762C56.2774 88.3611 61.2136 92.6101 65.1779 90.6404C67.1601 89.6348 68.2071 87.3555 68.6934 85.1535C69.1797 83.1441 69.3293 81.0573 70.04 79.1252L76.9584 83.2589C80.5483 85.3843 83.6519 90.9503 83.6519 95.1993Z" fill="url(#paint0_linear)"/>
<defs>
<linearGradient id="paint0_linear" x1="47.0218" y1="79.1252" x2="47.0218" y2="134.691" gradientUnits="userSpaceOnUse">
<stop stop-color="#B0FFC6"/>
<stop offset="1" stop-color="#00B4FF"/>
</linearGradient>
</defs>
</svg>
