<svg width="40" height="40" viewBox="0 0 40 40" fill="none" xmlns="http://www.w3.org/2000/svg">
<path d="M40 20C40 31.0458 31.0458 40 20 40C8.95416 40 0 31.0458 0 20C0 8.95416 8.95416 0 20 0C31.0458 0 40 8.95416 40 20Z" fill="url(#paint0_linear)"/>
<path d="M34.2395 13.1645C33.8153 11.5941 32.5754 10.3563 31.0077 9.93481C28.7805 9.32599 20.892 9.30859 20 9.30859C19.1083 9.30859 11.2253 9.32538 9.0033 9.90918C8.99933 9.9104 8.99536 9.91132 8.99139 9.91254C7.4469 10.3358 6.17859 11.6133 5.75806 13.173C5.16296 15.4307 5.15625 19.8521 5.15625 20.0392C5.15625 20.2272 5.16296 24.6718 5.75989 26.9117C6.18347 28.4831 7.42371 29.7218 8.99536 30.1445C11.243 30.7524 19.1104 30.7698 20 30.7698C20.8914 30.7698 28.7744 30.753 31.0028 30.1674C32.576 29.7444 33.8165 28.5054 34.2419 26.9276C34.8367 24.6702 34.8438 20.2488 34.8438 20.0676C34.8447 19.8793 34.8599 15.431 34.2395 13.1645ZM32.5 20.0618C32.5 21.252 32.4057 24.698 31.9772 26.324C31.7703 27.0918 31.1636 27.697 30.401 27.902C28.7665 28.3317 22.3389 28.426 20 28.426C17.6691 28.426 11.2576 28.3284 9.60541 27.8813C8.83606 27.6747 8.22968 27.0692 8.02368 26.3047C7.5946 24.6946 7.50031 21.2358 7.5 20.0392C7.5 18.849 7.5943 15.4026 8.02277 13.7767C8.22876 13.0122 8.84949 12.3839 9.6051 12.1745C11.25 11.7463 17.6642 11.6523 20 11.6523C22.337 11.6523 28.7595 11.75 30.3946 12.1968C31.1636 12.4037 31.7703 13.0092 31.9772 13.777C31.9775 13.7785 31.9781 13.78 31.9785 13.7816C32.4234 15.4048 32.5058 18.8612 32.5 20.0618Z" fill="white"/>
<path d="M16.168 26.1539L26.7496 20.0391L16.168 13.9243V26.1539ZM18.5117 17.9856L22.0652 20.0391L18.5117 22.0927V17.9856Z" fill="white"/>
<defs>
<linearGradient id="paint0_linear" x1="20" y1="0" x2="20" y2="40" gradientUnits="userSpaceOnUse">
<stop stop-color="#B0FFC6"/>
<stop offset="1" stop-color="#00B4FF"/>
</linearGradient>
</defs>
</svg>
