<svg width="312" height="330" viewBox="0 0 312 330" fill="none" xmlns="http://www.w3.org/2000/svg">
<path d="M305.722 147.872H6.27767C2.81051 147.872 0 150.317 0 153.333V324.539C0 327.555 2.81051 330 6.27767 330H143.996C146.747 326.848 151.1 324.812 156 324.812C160.9 324.812 165.253 326.848 168.004 330H305.722C309.19 330 312 327.555 312 324.539V153.333C312 150.317 309.19 147.872 305.722 147.872Z" fill="url(#paint0_linear)"/>
<path d="M305.723 147.872H280.612C284.079 147.872 286.89 150.317 286.89 153.333V324.539C286.89 327.555 284.079 330 280.612 330H305.723C309.19 330 312.001 327.555 312.001 324.539V153.333C312.001 150.317 309.19 147.872 305.723 147.872Z" fill="url(#paint1_linear)"/>
<path d="M20.4951 173.543H291.505V313.026H20.4951V173.543Z" fill="#C5D7E6"/>
<path d="M156 142.797V311.251C156 311.251 104.93 274.49 20.4951 300.329V142.797C20.4951 142.797 88.5877 114.952 156 142.797Z" fill="#E4ECF2"/>
<path d="M155.999 145.483C155.999 145.483 126.588 88.1047 51.8828 74.49V240.259C126.588 253.873 155.999 311.251 155.999 311.251V145.483Z" fill="#F0F5FA"/>
<path d="M156.005 145.483C156.005 145.483 157.977 72.2051 83.2715 58.5898V224.359C157.977 237.973 156.005 311.251 156.005 311.251V145.483Z" fill="#E4ECF2"/>
<path d="M156 142.797V311.251C156 311.251 207.069 274.49 291.505 300.329V142.797C291.505 142.797 223.412 114.952 156 142.797Z" fill="#E4ECF2"/>
<path d="M156.01 145.483C156.01 145.483 197.019 107.256 272.681 107.256V273.024C197.018 273.024 156.01 311.251 156.01 311.251V145.483Z" fill="#F0F5FA"/>
<path d="M70.4086 36.1125L70.3496 55.6098L65.8242 53.1633L65.8832 33.6661L70.4086 36.1125Z" fill="#D7D7D7"/>
<path d="M70.4145 36.1308L70.3506 55.6252C111.883 33.0064 164.274 21.678 209.327 23.0707V3.57684C164.288 2.19553 111.926 13.524 70.4145 36.1308Z" fill="#B0AFB0"/>
<path d="M65.8867 33.6666L70.4127 36.1131C111.929 13.5205 164.296 2.18353 209.327 3.55858V0.105013C162.564 -1.24383 108.595 10.4264 65.8867 33.6666Z" fill="#D7D7D7"/>
<path d="M273.119 80.6374C270.082 72.6577 262.615 66.879 253.959 64.4171C202.526 49.7883 160.948 30.7177 141.491 1.68282C137.787 -0.290888 134.403 -0.472024 131.976 0.84492L100.633 17.8929C103.063 16.5907 107.043 16.004 110.105 18.7484C136.551 42.4614 171.835 66.4039 222.693 81.4753C231.282 84.0209 238.71 89.7592 241.733 97.7058C242.68 100.194 243.207 102.724 243.188 105.091L243.06 160.939C242.996 164.886 241.528 167.636 239.101 168.953L161.833 210.988C161.744 211.043 161.679 211.128 161.588 211.177L270.487 151.885C272.914 150.57 274.382 147.817 274.446 143.873L274.574 88.0224C274.593 85.6551 274.066 83.126 273.119 80.6374Z" fill="#071846"/>
<path d="M243.201 105.103L243.073 160.95C243.009 164.898 241.541 167.648 239.114 168.962L165.74 208.845C165.612 208.728 165.484 208.666 165.484 208.547L174.106 203.823C176.532 202.509 178.001 199.759 178.065 195.811L178.129 154.434L178.192 147.737C178.192 147.737 178.192 147.737 178.192 147.675V139.964C178.192 137.751 177.745 135.357 176.851 133.027C176.851 132.907 176.787 132.726 176.723 132.607C173.722 124.654 166.314 118.913 157.693 116.344C106.861 101.276 71.5478 77.3575 45.1098 53.6178C42.9386 51.6441 40.2565 51.4658 38.0215 51.9448L100.603 17.9219C103.094 16.6049 107.054 16.0068 110.118 18.7569C136.556 42.4351 171.806 66.4147 222.702 81.4832C224.554 82.0204 226.342 82.7387 228.066 83.5766C234.26 86.5665 239.369 91.4685 241.732 97.6876C242.69 100.198 243.201 102.709 243.201 105.103Z" fill="#E8E8E8"/>
<path d="M178.061 195.832L178.189 139.985C178.208 137.617 177.681 135.088 176.734 132.599C173.711 124.653 166.283 118.914 157.694 116.369C106.836 101.297 71.5521 77.3542 45.1068 53.6412C42.9095 51.6732 40.2535 51.4516 38.0234 51.9478L23.0791 60.0761C25.5057 58.762 28.8899 58.9403 32.594 60.9727L152.33 125.731C159.738 129.678 165.677 139.366 165.677 147.316L165.485 203.105C165.485 205.937 164.712 208.162 163.38 209.683L174.103 203.846C176.529 202.529 177.997 199.779 178.061 195.832Z" fill="#071846"/>
<path d="M152.333 125.707C159.712 129.696 165.686 139.384 165.662 147.324L165.493 203.125C165.469 211.065 159.456 214.275 152.077 210.285C109.656 191.348 69.747 169.765 32.3298 145.55C24.9502 141.561 18.9763 131.869 19.0001 123.93L19.1692 68.1287C19.1935 60.1889 25.2063 56.982 32.5859 60.9715L152.333 125.707Z" fill="#686868"/>
<path d="M161.844 147.316L161.653 203.105C161.653 205.078 161.206 208.427 158.076 208.427C156.927 208.427 155.458 207.948 153.989 207.172C112.609 188.696 73.2076 167.467 36.7443 144.028C35.9778 143.549 35.2752 143.07 34.5093 142.591C28.1236 139.126 22.8232 130.632 22.8232 123.938L23.0143 68.1492C23.0143 66.1755 23.4614 62.8267 26.5906 62.8267C27.7398 62.8267 29.2089 63.3058 30.678 64.0821L138.6 122.444L150.414 128.84C156.544 132.127 161.844 140.741 161.844 147.316Z" fill="#071846"/>
<path d="M249.317 132.831L249.258 152.328L244.732 149.881L244.791 130.384L249.317 132.831Z" fill="#E8E8E8"/>
<path d="M311 59.2519L310.941 78.7492C310.868 103.063 289.555 130.4 249.258 152.328L249.317 132.831C289.613 110.903 310.927 83.5647 311 59.2519Z" fill="#B0AFB0"/>
<path d="M209.325 3.57684V23.0713C235.138 23.871 258.564 28.8084 276.103 38.2828C291.442 46.5393 300.373 57.3278 303.398 69.301C314.102 25.1993 259.407 5.11024 209.325 3.57684Z" fill="#B0AFB0"/>
<path d="M280.64 16.3184C261.891 6.18447 236.851 0.896752 209.323 0.10556V3.55969C251.353 4.83733 304.709 19.7749 304.709 59.2729L304.646 78.5868C304.646 75.422 304.161 72.3358 303.396 69.3021C298.372 90.0081 278.371 112.113 244.791 130.384L249.316 132.831C317.166 95.9115 331.197 43.6496 280.64 16.3184Z" fill="#D7D7D7"/>
<path d="M304.71 59.2724C304.71 55.886 304.97 62.8182 303.396 69.3016C304.161 72.3353 304.646 75.4209 304.646 78.5862L304.71 59.2724Z" fill="#E8E8E8"/>
<path d="M256.003 137.864C256.003 139.126 256.482 140.014 257.25 140.435L259.624 141.727C258.857 141.306 258.377 140.417 258.377 139.155C258.366 136.608 260.28 133.502 262.647 132.225C263.838 131.583 264.914 131.521 265.696 131.947L263.322 130.655C262.54 130.23 261.465 130.291 260.273 130.934C257.906 132.211 255.993 135.316 256.003 137.864Z" fill="#686868"/>
<path d="M262.649 132.225C260.283 133.504 258.369 136.606 258.376 139.155C258.384 141.7 260.311 142.725 262.677 141.446C265.043 140.168 266.954 137.067 266.946 134.522C266.939 131.973 265.015 130.946 262.649 132.225Z" fill="#071846"/>
<path d="M243.203 105.103L243.075 160.95C243.011 164.898 241.543 167.648 239.116 168.962L165.742 208.845C165.614 208.728 165.486 208.666 165.486 208.547L174.108 203.823C176.534 202.509 178.003 199.759 178.067 195.811L178.13 154.434C178.705 152.279 178.514 150.066 178.194 147.737C178.194 147.737 178.194 147.737 178.194 147.675V139.964C178.194 137.751 177.747 135.357 176.853 133.027C177.045 132.367 177.3 131.71 177.683 131.112C179.407 128.064 182.664 126.21 185.729 124.298C202.588 113.772 214.913 98.108 228.068 83.5771C234.262 86.567 239.371 91.4691 241.734 97.6882C242.692 100.198 243.203 102.709 243.203 105.103Z" fill="#D7D7D7"/>
<path d="M161.845 147.316L161.654 203.105C161.654 205.078 161.207 208.427 158.077 208.427C156.928 208.427 155.459 207.948 153.99 207.172C112.609 188.696 73.2085 167.468 36.7451 144.028C45.1553 141.972 55.7402 151.265 64.4601 147.257C67.1422 146.06 69.1223 143.73 71.8677 142.591C80.6806 138.886 91.2169 149.169 99.9653 145.225C103.031 143.788 105.074 140.798 108.203 139.543C115.1 136.734 123.529 143.309 130.298 140.261C133.683 138.705 135.471 135.178 136.301 131.77C137.132 128.661 137.387 125.432 138.601 122.442L150.415 128.839C156.545 132.128 161.845 140.741 161.845 147.316Z" fill="url(#paint2_linear)"/>
<defs>
<linearGradient id="paint0_linear" x1="156" y1="147.872" x2="156" y2="330" gradientUnits="userSpaceOnUse">
<stop stop-color="#B0FFC6"/>
<stop offset="1" stop-color="#00B4FF"/>
</linearGradient>
<linearGradient id="paint1_linear" x1="296.306" y1="147.872" x2="296.306" y2="330" gradientUnits="userSpaceOnUse">
<stop stop-color="#B0FFC6"/>
<stop offset="1" stop-color="#00B4FF"/>
</linearGradient>
<linearGradient id="paint2_linear" x1="99.2949" y1="122.442" x2="99.2949" y2="208.427" gradientUnits="userSpaceOnUse">
<stop stop-color="#B0FFC6"/>
<stop offset="1" stop-color="#00B4FF"/>
</linearGradient>
</defs>
</svg>
